<svg width="110" height="88" viewBox="0 0 110 88" fill="none" xmlns="http://www.w3.org/2000/svg">
<path d="M45.0457 36.916C41.9297 36.916 39.4697 39.116 39.4697 41.8C39.4697 44.484 41.9844 46.684 45.0457 46.684C48.1617 46.684 50.6217 44.484 50.6217 41.8C50.6764 39.116 48.1617 36.916 45.0457 36.916ZM64.9991 36.916C61.8831 36.916 59.4231 39.116 59.4231 41.8C59.4231 44.484 61.9377 46.684 64.9991 46.684C68.1151 46.684 70.5751 44.484 70.5751 41.8C70.5751 39.116 68.1151 36.916 64.9991 36.916Z" fill="#9400D3"/>
<path d="M91.5694 0H18.316C12.1387 0 7.10938 4.048 7.10938 9.064V68.552C7.10938 73.568 12.1387 77.616 18.316 77.616H80.308L77.4107 69.476L84.408 74.712L91.0227 79.64L102.776 88V9.064C102.776 4.048 97.7467 0 91.5694 0ZM70.468 57.464C70.468 57.464 68.5 55.572 66.86 53.9C74.0214 52.272 76.7547 48.664 76.7547 48.664C74.5134 49.852 72.3814 50.688 70.468 51.26C67.7347 52.184 65.1107 52.8 62.5414 53.152C57.2934 53.944 52.4827 53.724 48.3827 53.108C45.2667 52.624 42.588 51.92 40.3467 51.216C39.0894 50.82 37.7227 50.336 36.356 49.72C36.192 49.632 36.028 49.588 35.864 49.5C35.7547 49.456 35.7 49.412 35.6454 49.368C34.6614 48.928 34.1147 48.62 34.1147 48.62C34.1147 48.62 36.7387 52.14 43.6814 53.812C42.0414 55.484 40.0187 57.464 40.0187 57.464C27.9374 57.156 23.3454 50.776 23.3454 50.776C23.3454 36.608 31.2174 25.124 31.2174 25.124C39.0894 20.372 46.5787 20.504 46.5787 20.504L47.1254 21.032C37.2854 23.32 32.748 26.796 32.748 26.796C32.748 26.796 33.9507 26.268 35.9734 25.52C41.8227 23.452 46.4694 22.88 48.3827 22.748C48.7107 22.704 48.984 22.66 49.312 22.66C52.6467 22.308 56.4187 22.22 60.3547 22.572C65.548 23.056 71.124 24.288 76.8094 26.796C76.8094 26.796 72.4907 23.496 63.1974 21.208L63.9627 20.504C63.9627 20.504 71.452 20.372 79.324 25.124C79.324 25.124 87.196 36.608 87.196 50.776C87.196 50.776 82.5494 57.156 70.468 57.464Z" fill="#9400D3"/>
</svg>
