<svg width="84" height="82" viewBox="0 0 84 82" fill="none" xmlns="http://www.w3.org/2000/svg">
<path d="M4.194 60.07H10.242V62.41H4.194V60.07ZM4.41 67H1.494V54.4H11.016V56.74H4.41V67ZM18.1808 67V65.11L18.0008 64.696V61.312C18.0008 60.712 17.8148 60.244 17.4428 59.908C17.0828 59.572 16.5248 59.404 15.7688 59.404C15.2528 59.404 14.7428 59.488 14.2388 59.656C13.7468 59.812 13.3268 60.028 12.9788 60.304L11.9708 58.342C12.4988 57.97 13.1348 57.682 13.8788 57.478C14.6228 57.274 15.3788 57.172 16.1468 57.172C17.6228 57.172 18.7688 57.52 19.5848 58.216C20.4008 58.912 20.8088 59.998 20.8088 61.474V67H18.1808ZM15.2288 67.144C14.4728 67.144 13.8248 67.018 13.2848 66.766C12.7448 66.502 12.3308 66.148 12.0428 65.704C11.7548 65.26 11.6108 64.762 11.6108 64.21C11.6108 63.634 11.7488 63.13 12.0248 62.698C12.3128 62.266 12.7628 61.93 13.3748 61.69C13.9868 61.438 14.7848 61.312 15.7688 61.312H18.3428V62.95H16.0748C15.4148 62.95 14.9588 63.058 14.7068 63.274C14.4668 63.49 14.3468 63.76 14.3468 64.084C14.3468 64.444 14.4848 64.732 14.7608 64.948C15.0488 65.152 15.4388 65.254 15.9308 65.254C16.3988 65.254 16.8188 65.146 17.1908 64.93C17.5628 64.702 17.8328 64.372 18.0008 63.94L18.4328 65.236C18.2288 65.86 17.8568 66.334 17.3168 66.658C16.7768 66.982 16.0808 67.144 15.2288 67.144ZM25.5324 67L21.4644 57.316H24.3624L27.7464 65.65H26.3064L29.8164 57.316H32.5164L28.4304 67H25.5324ZM37.7366 67.144C36.7046 67.144 35.7866 66.928 34.9826 66.496C34.1906 66.064 33.5606 65.476 33.0926 64.732C32.6366 63.976 32.4086 63.118 32.4086 62.158C32.4086 61.186 32.6366 60.328 33.0926 59.584C33.5606 58.828 34.1906 58.24 34.9826 57.82C35.7866 57.388 36.7046 57.172 37.7366 57.172C38.7566 57.172 39.6686 57.388 40.4726 57.82C41.2766 58.24 41.9066 58.822 42.3626 59.566C42.8186 60.31 43.0466 61.174 43.0466 62.158C43.0466 63.118 42.8186 63.976 42.3626 64.732C41.9066 65.476 41.2766 66.064 40.4726 66.496C39.6686 66.928 38.7566 67.144 37.7366 67.144ZM37.7366 64.84C38.2046 64.84 38.6246 64.732 38.9966 64.516C39.3686 64.3 39.6626 63.994 39.8786 63.598C40.0946 63.19 40.2026 62.71 40.2026 62.158C40.2026 61.594 40.0946 61.114 39.8786 60.718C39.6626 60.322 39.3686 60.016 38.9966 59.8C38.6246 59.584 38.2046 59.476 37.7366 59.476C37.2686 59.476 36.8486 59.584 36.4766 59.8C36.1046 60.016 35.8046 60.322 35.5766 60.718C35.3606 61.114 35.2526 61.594 35.2526 62.158C35.2526 62.71 35.3606 63.19 35.5766 63.598C35.8046 63.994 36.1046 64.3 36.4766 64.516C36.8486 64.732 37.2686 64.84 37.7366 64.84ZM44.6535 67V57.316H47.3355V60.052L46.9575 59.26C47.2455 58.576 47.7075 58.06 48.3435 57.712C48.9795 57.352 49.7535 57.172 50.6655 57.172V59.764C50.5455 59.752 50.4375 59.746 50.3415 59.746C50.2455 59.734 50.1435 59.728 50.0355 59.728C49.2675 59.728 48.6435 59.95 48.1635 60.394C47.6955 60.826 47.4615 61.504 47.4615 62.428V67H44.6535ZM52.0827 67V57.316H54.8907V67H52.0827ZM53.4867 55.966C52.9707 55.966 52.5507 55.816 52.2267 55.516C51.9027 55.216 51.7407 54.844 51.7407 54.4C51.7407 53.956 51.9027 53.584 52.2267 53.284C52.5507 52.984 52.9707 52.834 53.4867 52.834C54.0027 52.834 54.4227 52.978 54.7467 53.266C55.0707 53.542 55.2327 53.902 55.2327 54.346C55.2327 54.814 55.0707 55.204 54.7467 55.516C54.4347 55.816 54.0147 55.966 53.4867 55.966ZM61.1868 67.144C60.0468 67.144 59.1588 66.856 58.5228 66.28C57.8868 65.692 57.5688 64.822 57.5688 63.67V55.174H60.3768V63.634C60.3768 64.042 60.4848 64.36 60.7008 64.588C60.9168 64.804 61.2108 64.912 61.5828 64.912C62.0268 64.912 62.4048 64.792 62.7168 64.552L63.4728 66.532C63.1848 66.736 62.8368 66.892 62.4288 67C62.0328 67.096 61.6188 67.144 61.1868 67.144ZM56.0748 59.692V57.532H62.7888V59.692H56.0748ZM70.719 67V65.11L70.539 64.696V61.312C70.539 60.712 70.353 60.244 69.981 59.908C69.621 59.572 69.063 59.404 68.307 59.404C67.791 59.404 67.281 59.488 66.777 59.656C66.285 59.812 65.865 60.028 65.517 60.304L64.509 58.342C65.037 57.97 65.673 57.682 66.417 57.478C67.161 57.274 67.917 57.172 68.685 57.172C70.161 57.172 71.307 57.52 72.123 58.216C72.939 58.912 73.347 59.998 73.347 61.474V67H70.719ZM67.767 67.144C67.011 67.144 66.363 67.018 65.823 66.766C65.283 66.502 64.869 66.148 64.581 65.704C64.293 65.26 64.149 64.762 64.149 64.21C64.149 63.634 64.287 63.13 64.563 62.698C64.851 62.266 65.301 61.93 65.913 61.69C66.525 61.438 67.323 61.312 68.307 61.312H70.881V62.95H68.613C67.953 62.95 67.497 63.058 67.245 63.274C67.005 63.49 66.885 63.76 66.885 64.084C66.885 64.444 67.023 64.732 67.299 64.948C67.587 65.152 67.977 65.254 68.469 65.254C68.937 65.254 69.357 65.146 69.729 64.93C70.101 64.702 70.371 64.372 70.539 63.94L70.971 65.236C70.767 65.86 70.395 66.334 69.855 66.658C69.315 66.982 68.619 67.144 67.767 67.144ZM75.6184 67V57.316H78.3004V60.052L77.9224 59.26C78.2104 58.576 78.6724 58.06 79.3084 57.712C79.9444 57.352 80.7184 57.172 81.6304 57.172V59.764C81.5104 59.752 81.4024 59.746 81.3064 59.746C81.2104 59.734 81.1084 59.728 81.0004 59.728C80.2324 59.728 79.6084 59.95 79.1284 60.394C78.6604 60.826 78.4264 61.504 78.4264 62.428V67H75.6184Z" fill="white"/>
<path d="M42.014 34.166L29.6526 41L32.014 26.5252L22 16.275L35.8193 14.1691L41.9999 1L48.1807 14.1691L62 16.275L51.9859 26.5252L54.3472 41L42.014 34.166Z" stroke="#52BCBF" stroke-width="2" stroke-linecap="round" stroke-linejoin="round"/>
</svg>
