<svg width="91" height="88" viewBox="0 0 91 88" fill="none" xmlns="http://www.w3.org/2000/svg">
<path fill-rule="evenodd" clip-rule="evenodd" d="M45.0394 0C20.1642 0 0 20.1957 0 45.116C0 65.046 12.9038 81.9583 30.8025 87.9215C33.0544 88.3358 33.8742 86.9441 33.8742 85.7461C33.8742 84.6786 33.8381 81.8366 33.8156 78.0759C21.2856 80.8007 18.6418 72.0271 18.6418 72.0271C16.597 66.8115 13.6424 65.4243 13.6424 65.4243C9.55286 62.6318 13.9532 62.6859 13.9532 62.6859C18.4707 63.0012 20.8488 67.334 20.8488 67.334C24.8663 74.225 31.3925 72.2342 33.9552 71.0812C34.3696 68.1672 35.5316 66.1809 36.8197 65.055C26.821 63.9155 16.3043 60.0421 16.3043 42.7559C16.3043 37.8331 18.0608 33.8021 20.9388 30.6493C20.4749 29.5098 18.9301 24.9203 21.3802 18.7139C21.3802 18.7139 25.1635 17.4978 33.7661 23.3349C37.4402 22.3329 41.2311 21.8225 45.0394 21.8171C48.8678 21.8351 52.7187 22.3351 56.3173 23.3349C64.9153 17.4978 68.6896 18.7094 68.6896 18.7094C71.1488 24.9203 69.5994 29.5098 69.14 30.6493C72.0226 33.8021 73.7701 37.8331 73.7701 42.7559C73.7701 60.0871 63.2354 63.902 53.2051 65.0189C54.822 66.4107 56.2588 69.1626 56.2588 73.3737C56.2588 79.4 56.2047 84.2688 56.2047 85.7461C56.2047 86.9531 57.0154 88.3584 59.3034 87.917C68.2721 84.9088 76.0686 79.1582 81.5911 71.4778C87.1136 63.7974 90.0827 54.5757 90.0789 45.116C90.0789 20.1957 69.9102 0 45.0394 0Z" fill="white"/>
</svg>
