<svg width="88" height="88" viewBox="0 0 88 88" fill="none" xmlns="http://www.w3.org/2000/svg">
<g clip-path="url(#clip0_343_258)">
<path d="M44 7.92344C55.7563 7.92344 57.1484 7.975 61.7719 8.18125C66.0688 8.37031 68.3891 9.09219 69.9359 9.69375C71.9813 10.4844 73.4594 11.4469 74.9891 12.9766C76.5359 14.5234 77.4813 15.9844 78.2719 18.0297C78.8734 19.5766 79.5953 21.9141 79.7844 26.1937C79.9906 30.8344 80.0422 32.2266 80.0422 43.9656C80.0422 55.7219 79.9906 57.1141 79.7844 61.7375C79.5953 66.0344 78.8734 68.3547 78.2719 69.9016C77.4813 71.9469 76.5187 73.425 74.9891 74.9547C73.4422 76.5016 71.9813 77.4469 69.9359 78.2375C68.3891 78.8391 66.0516 79.5609 61.7719 79.75C57.1313 79.9563 55.7391 80.0078 44 80.0078C32.2438 80.0078 30.8516 79.9563 26.2281 79.75C21.9313 79.5609 19.6109 78.8391 18.0641 78.2375C16.0188 77.4469 14.5406 76.4844 13.0109 74.9547C11.4641 73.4078 10.5187 71.9469 9.72812 69.9016C9.12656 68.3547 8.40469 66.0172 8.21563 61.7375C8.00938 57.0969 7.95781 55.7047 7.95781 43.9656C7.95781 32.2094 8.00938 30.8172 8.21563 26.1937C8.40469 21.8969 9.12656 19.5766 9.72812 18.0297C10.5187 15.9844 11.4812 14.5063 13.0109 12.9766C14.5578 11.4297 16.0188 10.4844 18.0641 9.69375C19.6109 9.09219 21.9484 8.37031 26.2281 8.18125C30.8516 7.975 32.2438 7.92344 44 7.92344ZM44 0C32.0547 0 30.5594 0.0515625 25.8672 0.257813C21.1922 0.464063 17.9781 1.22031 15.1938 2.30312C12.2891 3.4375 9.83125 4.93281 7.39063 7.39063C4.93281 9.83125 3.4375 12.2891 2.30312 15.1766C1.22031 17.9781 0.464063 21.175 0.257813 25.85C0.0515625 30.5594 0 32.0547 0 44C0 55.9453 0.0515625 57.4406 0.257813 62.1328C0.464063 66.8078 1.22031 70.0219 2.30312 72.8063C3.4375 75.7109 4.93281 78.1688 7.39063 80.6094C9.83125 83.05 12.2891 84.5625 15.1766 85.6797C17.9781 86.7625 21.175 87.5187 25.85 87.725C30.5422 87.9312 32.0375 87.9828 43.9828 87.9828C55.9281 87.9828 57.4234 87.9312 62.1156 87.725C66.7906 87.5187 70.0047 86.7625 72.7891 85.6797C75.6766 84.5625 78.1344 83.05 80.575 80.6094C83.0156 78.1688 84.5281 75.7109 85.6453 72.8234C86.7281 70.0219 87.4844 66.825 87.6906 62.15C87.8969 57.4578 87.9484 55.9625 87.9484 44.0172C87.9484 32.0719 87.8969 30.5766 87.6906 25.8844C87.4844 21.2094 86.7281 17.9953 85.6453 15.2109C84.5625 12.2891 83.0672 9.83125 80.6094 7.39063C78.1688 4.95 75.7109 3.4375 72.8234 2.32031C70.0219 1.2375 66.825 0.48125 62.15 0.275C57.4406 0.0515625 55.9453 0 44 0Z" fill="white"/>
<path d="M44 21.3984C31.5219 21.3984 21.3984 31.5219 21.3984 44C21.3984 56.4781 31.5219 66.6016 44 66.6016C56.4781 66.6016 66.6016 56.4781 66.6016 44C66.6016 31.5219 56.4781 21.3984 44 21.3984ZM44 58.6609C35.9047 58.6609 29.3391 52.0953 29.3391 44C29.3391 35.9047 35.9047 29.3391 44 29.3391C52.0953 29.3391 58.6609 35.9047 58.6609 44C58.6609 52.0953 52.0953 58.6609 44 58.6609Z" fill="white"/>
<path d="M72.7719 20.5046C72.7719 23.4265 70.4 25.7812 67.4953 25.7812C64.5734 25.7812 62.2188 23.4093 62.2188 20.5046C62.2188 17.5827 64.5906 15.228 67.4953 15.228C70.4 15.228 72.7719 17.5999 72.7719 20.5046Z" fill="white"/>
</g>
<defs>
<clipPath id="clip0_343_258">
<rect width="88" height="88" fill="white"/>
</clipPath>
</defs>
</svg>
