<svg width="85" height="88" viewBox="0 0 85 88" fill="none" xmlns="http://www.w3.org/2000/svg">
<g clip-path="url(#clip0_343_254)">
<path d="M77.9812 0H6.21744C2.77975 0 0 2.83594 0 6.34219V81.6406C0 85.1469 2.77975 88 6.21744 88H77.9812C81.4189 88 84.2151 85.1469 84.2151 81.6578V6.34219C84.2151 2.83594 81.4189 0 77.9812 0ZM24.9849 74.9891H12.4842V32.9828H24.9849V74.9891ZM18.7346 27.2594C14.7212 27.2594 11.4809 23.8734 11.4809 19.6969C11.4809 15.5203 14.7212 12.1344 18.7346 12.1344C22.7315 12.1344 25.9718 15.5203 25.9718 19.6969C25.9718 23.8563 22.7315 27.2594 18.7346 27.2594ZM71.7637 74.9891H59.2795V54.5703C59.2795 49.7063 59.1973 43.4328 52.7824 43.4328C46.2854 43.4328 45.2985 48.7438 45.2985 54.2266V74.9891H32.8307V32.9828H44.805V38.7234H44.9695C46.6308 35.4234 50.71 31.9344 56.7794 31.9344C69.4281 31.9344 71.7637 40.6313 71.7637 51.9406V74.9891V74.9891Z" fill="white"/>
</g>
<defs>
<clipPath id="clip0_343_254">
<rect width="84.2151" height="88" fill="white"/>
</clipPath>
</defs>
</svg>
