<svg width="134" height="38" viewBox="0 0 134 38" fill="none" xmlns="http://www.w3.org/2000/svg">
<path d="M58.9209 0.991455H88.6749V37.2401H58.9209V0.991455Z" fill="#9119B3"/>
<path d="M68.9083 35.6236C68.7693 35.4779 68.7195 35.4547 68.5217 35.4547C68.3971 35.4547 68.137 35.4232 67.9446 35.3851C67.754 35.347 67.3907 35.3023 67.1413 35.2858C66.7245 35.2593 66.6497 35.2675 66.2916 35.3851C66.0743 35.4564 65.8321 35.5209 65.7537 35.5309C65.6735 35.5408 65.5845 35.5657 65.5542 35.5855C65.5239 35.6054 65.4099 35.6187 65.3012 35.6154C65.1338 35.6087 65.0732 35.5773 64.9147 35.4034C64.7936 35.2742 64.7241 35.1533 64.7241 35.0704C64.7241 35.0009 64.8916 34.5802 65.0964 34.1363C65.3012 33.6924 65.5025 33.237 65.5453 33.1244C65.6646 32.8097 65.8142 31.9103 65.8463 31.3141C65.8623 31.0193 65.8962 30.6632 65.9211 30.5224C65.9461 30.3816 65.9924 30.047 66.0227 29.7787C66.0743 29.3382 66.1135 29.0897 66.2702 28.2434C66.3272 27.9403 66.4003 27.3838 66.4751 26.708C66.5392 26.1101 66.6336 25.6663 66.8224 25.0551C66.9008 24.8 66.9774 24.5284 66.9917 24.4506C67.0273 24.2518 67.2179 23.6092 67.3194 23.3343C67.437 23.0179 67.6204 22.3985 67.6204 22.3124C67.6204 22.2345 67.8645 21.5157 68.2278 20.5186C68.365 20.1476 68.4843 19.8081 68.4932 19.7634C68.5039 19.717 68.5235 19.6657 68.536 19.6458C68.5485 19.6276 68.5716 19.5381 68.5859 19.4487C68.6019 19.3593 68.6625 19.1605 68.7212 19.0065C68.78 18.8524 68.8727 18.6024 68.9279 18.4483C69.0365 18.1452 69.0775 18.0359 69.3144 17.4629C69.5032 17.0024 69.7757 16.3051 69.9735 15.7735C70.0554 15.5549 70.1409 15.3346 70.1658 15.2849C70.4526 14.677 70.6147 13.7926 70.6165 12.8419C70.6165 12.1579 70.588 11.9509 70.3921 11.2122C70.3208 10.9439 70.2424 10.6424 70.2175 10.5414C70.1587 10.3079 70.1926 8.71289 70.262 8.37501C70.3333 8.03051 70.3921 7.90132 70.6735 7.47401C70.8053 7.27526 70.914 7.09473 70.914 7.07651C70.914 7.0086 71.5962 6.43223 71.8634 6.27489C72.127 6.1192 72.8965 5.75648 73.2599 5.6157C73.5271 5.51135 74.1184 5.32917 74.8078 5.1387C76.3539 4.70807 76.5855 4.63851 76.6674 4.5706C76.7155 4.5292 76.7957 4.47454 76.8473 4.44639C77.1109 4.30229 77.4066 4.10354 77.6542 3.90479C77.8074 3.78223 78.0657 3.61495 78.2296 3.53214C78.3917 3.45098 78.5716 3.35823 78.625 3.32842C78.8779 3.18598 80.4561 2.80835 81.0386 2.75039C81.4216 2.71229 82.4102 2.75867 82.6684 2.82823C82.7807 2.85639 82.8181 2.89448 82.8181 2.97564C82.8181 3.07004 82.7664 3.10317 82.444 3.21248C81.8277 3.41951 81.573 3.5222 81.3165 3.66464C80.49 4.12176 80.1017 4.4762 79.7525 5.09398C79.6652 5.24801 79.5744 5.4037 79.5512 5.44345C79.3838 5.71673 78.951 6.57467 78.951 6.63264C78.951 6.67239 78.894 6.7817 78.8263 6.87445C78.7568 6.96885 78.7016 7.07485 78.7016 7.10798C78.7016 7.19576 78.5039 7.58664 78.4202 7.66448C78.3827 7.70092 78.3507 7.74564 78.3507 7.76385C78.3507 7.78207 78.3115 7.83839 78.2616 7.88807C78.2135 7.93776 78.0728 8.11498 77.9499 8.2806C77.827 8.44789 77.7112 8.59529 77.6916 8.60854C77.672 8.62179 77.469 8.97789 77.241 9.40023C76.6817 10.4337 76.5249 10.9737 76.5374 11.8366C76.5463 12.4825 76.6015 12.7591 76.8847 13.6121C76.9791 13.8953 77.07 14.21 77.0842 14.3094C77.0985 14.4104 77.1305 14.5346 77.1537 14.5859C77.2517 14.7996 77.3033 15.0182 77.2748 15.0894C77.257 15.1325 77.2891 15.2551 77.3443 15.3644C77.485 15.6459 77.485 15.6426 77.6257 16.7507C77.7789 17.9614 77.8804 18.5643 77.9784 18.8508C78.0194 18.9684 78.0514 19.1257 78.0514 19.1986C78.0514 19.2731 78.0728 19.4056 78.0977 19.4951C78.153 19.6938 78.1886 20.0383 78.2296 20.7754C78.2687 21.4793 78.3293 21.8635 78.5235 22.6353C78.7817 23.6639 78.853 25.3599 78.666 26.1035C78.4985 26.7743 78.2153 27.3126 77.5741 28.1821C77.2659 28.5978 77.0041 29.0748 77.0041 29.2173C77.0041 29.2603 76.9845 29.315 76.9613 29.3398C76.8936 29.4127 76.7672 29.7837 76.7119 30.0818C76.6817 30.2342 76.6442 30.6946 76.6264 31.1054C76.5801 32.1588 76.6692 32.5314 77.1074 33.1277C77.3158 33.4142 77.4351 33.5235 77.8876 33.8481C78.169 34.0502 78.2296 34.0734 78.5716 34.1082C78.7782 34.1297 78.9866 34.1678 79.0365 34.1926C79.2003 34.2754 79.3624 34.4725 79.3624 34.5918C79.3624 34.721 79.2627 34.8634 79.1986 34.827C79.1772 34.8137 79.0952 34.827 79.0169 34.8535C78.7764 34.9396 78.4522 34.9578 76.1793 35.0092L75.1997 35.0324C75.091 35.0357 75.0625 35.0638 75.0358 35.198C74.9823 35.463 74.6225 35.6534 74.2502 35.6154C73.8602 35.5756 73.1281 35.4911 73.039 35.4746C72.9856 35.4646 72.4904 35.4464 71.94 35.4315C70.8837 35.4034 70.7501 35.4183 69.9165 35.6419C69.7098 35.6982 69.4355 35.7528 69.3037 35.7661C69.0811 35.7893 69.0579 35.781 68.9083 35.6236ZM69.7009 34.2092C70.4152 33.5517 70.8035 33.28 71.2114 33.1525C71.6657 33.0117 72.4441 33.0697 72.6863 33.2635C72.9446 33.4689 72.941 33.4689 73.1102 33.3148C73.381 33.068 73.8619 32.9074 74.4337 32.8743C74.6546 32.861 75.246 32.967 75.531 33.0714C75.7697 33.1575 76.1045 33.237 76.1045 33.2055C76.1045 33.1972 76.0707 33.126 76.0279 33.0465C75.8498 32.7119 75.7518 31.7662 75.8284 31.1054C75.8409 31.0027 75.8605 30.8139 75.8747 30.6864C75.889 30.5588 75.9478 30.2889 76.0048 30.0884C76.0618 29.888 76.1437 29.5518 76.1847 29.3431C76.2257 29.1344 76.3129 28.7237 76.3806 28.4289C76.4465 28.1357 76.5249 27.6736 76.5552 27.4053C76.5855 27.137 76.6318 26.7594 76.6585 26.5673C76.6852 26.3768 76.7493 25.8634 76.8046 25.4278C76.858 24.9938 76.9257 24.4903 76.9524 24.3114C76.9809 24.1326 77.0379 23.692 77.0789 23.3343C77.1198 22.9765 77.1679 22.6519 77.1822 22.6121C77.2374 22.4796 77.3603 20.7273 77.3567 20.1509C77.355 19.8329 77.3318 19.4553 77.3051 19.3129C77.2784 19.1704 77.2356 18.9336 77.2089 18.7895C77.1359 18.392 77.0112 17.2641 77.0183 17.0521C77.0254 16.7937 76.9079 16.0501 76.7957 15.6575C76.7387 15.4555 76.6781 15.101 76.6068 14.5628C76.5819 14.3706 76.5374 14.1553 76.5089 14.0841L76.4554 13.9533L76.2435 14.0907C76.1259 14.1653 75.9638 14.2961 75.8801 14.3789C75.7982 14.4617 75.6628 14.5942 75.5791 14.6737C75.4953 14.7532 75.3849 14.8824 75.335 14.9586C75.0946 15.3263 74.8559 15.4439 74.6973 15.2733C74.5994 15.1673 74.5139 14.7284 74.5014 14.263C74.4907 13.8572 74.4302 13.6353 74.236 13.2874C74.1024 13.0489 74.0703 12.822 74.163 12.769C74.2467 12.721 74.5085 12.716 74.5085 12.7624C74.5085 12.7856 74.5531 12.7955 74.6083 12.7806C74.6635 12.7674 74.708 12.7757 74.708 12.7972C74.708 12.8187 74.7757 12.8287 74.8577 12.8187C74.9521 12.8088 74.9966 12.8187 74.977 12.8485C74.9574 12.8784 75.0197 12.8933 75.1391 12.8866C75.2442 12.8833 75.3475 12.8833 75.3689 12.8899C75.4223 12.9032 75.4544 12.9098 75.6806 12.9529C75.791 12.9728 75.9032 13.0026 75.93 13.0191C75.9585 13.0357 76.003 13.0506 76.0297 13.0506C76.0582 13.0523 76.0725 13.092 76.0636 13.1417C76.0547 13.1897 76.0707 13.2725 76.0974 13.3255C76.1259 13.3802 76.1989 13.5276 76.2595 13.6551C76.3397 13.8241 76.3753 13.8638 76.3913 13.8009C76.4198 13.6965 76.3129 13.3189 76.2221 13.1914C76.1847 13.1417 76.1544 13.0622 76.1544 13.0175C76.1544 12.9711 76.1188 12.9347 76.0707 12.9347C76.0244 12.9347 75.9282 12.8817 75.8552 12.8187C75.7697 12.7409 75.6272 12.6862 75.4294 12.6531C75.2656 12.6266 75.0429 12.5719 74.936 12.5339C74.7383 12.4626 74.1309 12.451 74.0329 12.5156C74.0062 12.5339 73.9278 12.562 73.8584 12.5769C73.7034 12.6117 73.2278 13.0374 73.1851 13.1781C73.1672 13.2361 73.0978 13.3819 73.0301 13.5028C72.8698 13.7876 72.7202 14.1967 72.6827 14.4518C72.5812 15.1474 72.5759 18.6719 72.6756 19.659C72.6917 19.8114 72.7184 20.2619 72.738 20.6594C72.7558 21.0553 72.7807 21.3948 72.7914 21.4114C72.8039 21.4296 72.8235 21.5853 72.8359 21.7608C72.8484 21.9347 72.8751 22.2345 72.8929 22.4266C72.9553 23.0626 72.9321 23.7434 72.8431 23.9189C72.7985 24.0067 72.7504 24.2038 72.738 24.3578C72.6881 24.9441 72.6471 25.2009 72.5812 25.3516C72.542 25.4394 72.5117 25.5437 72.5117 25.5868C72.5117 25.6298 72.4672 25.7458 72.412 25.8451C72.3586 25.9445 72.2873 26.1002 72.2552 26.1913C72.1644 26.4579 71.8277 27.1039 71.7494 27.1635C71.7102 27.195 71.6372 27.3026 71.5873 27.4053C71.5392 27.508 71.4786 27.5925 71.4572 27.5925C71.4341 27.5925 71.3789 27.6587 71.3343 27.7399C71.2025 27.9767 70.4348 28.6276 69.9646 28.9009C69.79 29.0019 68.7961 29.31 68.536 29.3448C68.1103 29.3994 67.7736 28.9705 67.8413 28.462C67.8591 28.3245 68.0194 27.8161 68.1976 27.3324C68.5556 26.3602 68.6322 26.13 68.7195 25.754C68.7444 25.6514 68.7622 25.4211 68.7622 25.2423L68.7604 24.916L68.6678 25.1959C68.6179 25.3483 68.5289 25.6215 68.4719 25.8004C68.4167 25.9793 68.3383 26.1996 68.3009 26.289C68.2635 26.3784 68.1922 26.5772 68.1423 26.7312C68.0942 26.8853 68.0034 27.1569 67.9411 27.3358C67.8787 27.5146 67.7932 27.8111 67.7487 27.9933C67.6489 28.4206 67.5884 29.2438 67.6525 29.3233C67.6792 29.3564 67.7309 29.4773 67.7647 29.5932C67.8003 29.7075 67.9179 30.0321 68.0266 30.3137C68.2367 30.8553 68.5075 31.7927 68.5396 32.0826C68.5449 32.1339 68.5645 32.2896 68.5841 32.4304C68.6037 32.5712 68.6286 33.0432 68.6393 33.4788C68.666 34.4278 68.7658 34.8005 68.9991 34.8038C69.0312 34.8038 69.3465 34.5371 69.7009 34.2092ZM76.1419 8.16798C76.9417 7.95267 77.273 7.80029 77.6061 7.49223C77.9837 7.13945 78.4772 6.41567 78.7337 5.83598C78.7907 5.70679 78.9011 5.50804 78.9777 5.39376C79.0561 5.27948 79.1968 5.05092 79.2912 4.88529C79.4711 4.57392 79.8701 4.08698 80.2352 3.7342C80.3528 3.62157 80.4472 3.52054 80.4472 3.5106C80.4472 3.48079 79.8469 3.58017 79.3998 3.68451C79.1879 3.7342 78.3151 4.13998 78.1512 4.2642C78.1102 4.29567 77.9303 4.42485 77.7522 4.55239C77.5741 4.67992 77.3746 4.83229 77.3104 4.89192C77.1555 5.03435 76.7832 5.72832 76.6336 6.15232C76.4982 6.53989 76.4608 6.62601 76.1972 7.15601C75.9887 7.5767 75.7857 7.87317 75.5167 8.15142C75.3653 8.3071 75.3564 8.32698 75.4472 8.32698C75.5025 8.32698 75.816 8.25576 76.1419 8.16798ZM74.0383 7.64792C74.562 7.41604 74.6582 6.91089 74.2182 6.70054C74.122 6.65417 74.0703 6.6641 73.894 6.76017C73.6464 6.89598 73.3703 7.20073 73.3062 7.40942C73.2421 7.61976 73.2421 7.62142 73.422 7.6711C73.6696 7.73735 73.8512 7.73073 74.0383 7.64792ZM73.5823 7.39451C73.5324 7.31832 73.6001 7.13117 73.6874 7.0997C73.7319 7.08314 73.821 7.08314 73.8887 7.0997C74.0205 7.13117 74.0543 7.28851 73.9492 7.38789C73.8744 7.45579 73.6268 7.46076 73.5823 7.39451ZM78.0265 14.0626C77.9731 14.051 77.8323 13.9582 77.7166 13.8589C77.5901 13.7512 77.4547 13.6783 77.3835 13.6783C77.0397 13.6783 76.8829 13.4663 76.8348 12.9363C76.8081 12.6465 76.8527 12.5372 77.0165 12.4991C77.143 12.4693 77.5384 12.1198 77.7112 11.8846C77.8466 11.7008 78.0977 11.5683 78.2296 11.613C78.5555 11.7206 78.6197 11.9542 78.47 12.4858C78.4059 12.7127 78.3952 12.8982 78.4202 13.3868C78.4487 13.9615 78.4451 14.0046 78.3542 14.0493C78.2545 14.099 78.1939 14.1023 78.0265 14.0626Z" fill="#5CE1E6"/>
<path d="M0.759766 32.4454V9.56262H7.41452V27.4501H16.8908V32.4454H0.759766Z" fill="#9119B3"/>
<path d="M20.8237 32.4454V9.56262H27.507V32.4454H20.8237Z" fill="#9119B3"/>
<path d="M56.2593 32.4454H47.5383L38.5537 16.3201H38.3969C38.6107 18.8558 38.7176 20.792 38.7176 22.1302V32.4454H32.8252V9.56262H41.5177L50.4738 25.4626H50.5736C50.4168 23.1571 50.3384 21.3054 50.3384 19.9042V9.56262H56.2593V32.4454Z" fill="#9119B3"/>
<path d="M112.349 8.84778V22.7139C112.349 25.7316 111.432 28.0669 109.599 29.7232C107.764 31.3761 105.119 32.2009 101.662 32.2009C98.2847 32.2009 95.6876 31.3976 93.8743 29.7894C92.0645 28.1828 91.1597 25.8707 91.1597 22.853V8.84778H97.8857V22.3694C97.8857 23.9958 98.2134 25.1767 98.8689 25.9138C99.5244 26.6475 100.488 27.0135 101.762 27.0135C103.13 27.0135 104.12 26.6492 104.733 25.9204C105.349 25.1917 105.659 23.9975 105.659 22.3363V8.84778H112.349Z" fill="#5CE1E6"/>
<path d="M133.746 24.8869C133.746 26.3179 133.356 27.5883 132.578 28.6963C131.797 29.801 130.675 30.6623 129.207 31.2801C127.74 31.8929 126.015 32.2009 124.035 32.2009C122.385 32.2009 121.001 32.0916 119.881 31.8763C118.764 31.661 117.603 31.285 116.397 30.7501V25.2049C117.674 25.8144 119.001 26.2898 120.38 26.6293C121.757 26.9705 123.019 27.1394 124.17 27.1394C125.168 27.1394 125.896 26.9804 126.357 26.6624C126.822 26.3411 127.056 25.9271 127.056 25.4236C127.056 25.1105 126.96 24.8373 126.771 24.6021C126.585 24.3636 126.286 24.1234 125.873 23.8799C125.463 23.6381 124.366 23.1429 122.581 22.3959C120.966 21.7169 119.754 21.056 118.947 20.4151C118.139 19.7758 117.54 19.0404 117.152 18.2089C116.762 17.3792 116.568 16.397 116.568 15.2608C116.568 13.1408 117.396 11.4895 119.054 10.3053C120.716 9.11779 122.998 8.52319 125.901 8.52319C128.466 8.52319 131.081 9.07307 133.746 10.1728L131.694 14.9759C129.38 13.9921 127.38 13.4986 125.695 13.4986C124.826 13.4986 124.193 13.641 123.8 13.9226C123.404 14.2058 123.208 14.5569 123.208 14.9759C123.208 15.4314 123.459 15.8372 123.963 16.1949C124.466 16.5494 125.83 17.1986 128.053 18.1427C130.185 19.0404 131.667 20.001 132.499 21.0246C133.329 22.0448 133.746 23.3334 133.746 24.8869Z" fill="#5CE1E6"/>
</svg>
