<svg width="125" height="1184" viewBox="0 0 125 1184" fill="none" xmlns="http://www.w3.org/2000/svg">
<line x1="63.5" x2="63.5" y2="1184" stroke="#52BCBF"/>
<ellipse cx="62.5" cy="96.5" rx="62.5" ry="64.5" fill="#52BCBF"/>
<path d="M48.2699 122V119.144L64.5659 103.184C66.0593 101.728 67.1793 100.459 67.9259 99.376C68.6726 98.256 69.1766 97.2107 69.4379 96.24C69.6993 95.2693 69.8299 94.3547 69.8299 93.496C69.8299 91.2187 69.0459 89.4267 67.4779 88.12C65.9473 86.8133 63.6699 86.16 60.6459 86.16C58.3313 86.16 56.2779 86.5147 54.4859 87.224C52.7313 87.9333 51.2193 89.0347 49.9499 90.528L47.0939 88.064C48.6246 86.272 50.5846 84.8907 52.9739 83.92C55.3633 82.9493 58.0326 82.464 60.9819 82.464C63.6326 82.464 65.9286 82.8933 67.8699 83.752C69.8113 84.5733 71.3046 85.7867 72.3499 87.392C73.4326 88.9973 73.9739 90.8827 73.9739 93.048C73.9739 94.3173 73.7873 95.568 73.4139 96.8C73.0779 98.032 72.4433 99.3387 71.5099 100.72C70.6139 102.064 69.2886 103.595 67.5339 105.312L52.5819 119.984L51.4619 118.416H75.7659V122H48.2699Z" fill="white"/>
</svg>
