<svg width="125" height="419" viewBox="0 0 125 419" fill="none" xmlns="http://www.w3.org/2000/svg">
<line x1="63.5" y1="25" x2="63.5" y2="393" stroke="#52BCBF"/>
<ellipse cx="62.5" cy="72.5" rx="62.5" ry="64.5" fill="#52BCBF"/>
<path d="M49.2699 90V87.144L65.5659 71.184C67.0593 69.728 68.1793 68.4587 68.9259 67.376C69.6726 66.256 70.1766 65.2107 70.4379 64.24C70.6993 63.2693 70.8299 62.3547 70.8299 61.496C70.8299 59.2187 70.0459 57.4267 68.4779 56.12C66.9473 54.8133 64.6699 54.16 61.6459 54.16C59.3313 54.16 57.2779 54.5147 55.4859 55.224C53.7313 55.9333 52.2193 57.0347 50.9499 58.528L48.0939 56.064C49.6246 54.272 51.5846 52.8907 53.9739 51.92C56.3633 50.9493 59.0326 50.464 61.9819 50.464C64.6326 50.464 66.9286 50.8933 68.8699 51.752C70.8113 52.5733 72.3046 53.7867 73.3499 55.392C74.4326 56.9973 74.9739 58.8827 74.9739 61.048C74.9739 62.3173 74.7873 63.568 74.4139 64.8C74.0779 66.032 73.4433 67.3387 72.5099 68.72C71.6139 70.064 70.2886 71.5947 68.5339 73.312L53.5819 87.984L52.4619 86.416H76.7659V90H49.2699Z" fill="white"/>
</svg>
