<svg width="125" height="419" viewBox="0 0 125 419" fill="none" xmlns="http://www.w3.org/2000/svg">
<line x1="63.5" y1="25" x2="63.5" y2="393" stroke="#52BCBF"/>
<ellipse cx="62.5" cy="72.5" rx="62.5" ry="64.5" fill="#52BCBF"/>
<path d="M61.8113 90.336C58.974 90.336 56.286 89.888 53.7473 88.992C51.246 88.0587 49.23 86.8267 47.6993 85.296L49.6593 82.104C50.9286 83.4107 52.6273 84.4933 54.7553 85.352C56.9206 86.2107 59.2726 86.64 61.8113 86.64C65.0593 86.64 67.542 85.9307 69.2593 84.512C71.014 83.0933 71.8913 81.1893 71.8913 78.8C71.8913 76.4107 71.0326 74.5067 69.3153 73.088C67.6353 71.6693 64.966 70.96 61.3073 70.96H58.5073V67.992L70.6033 52.816L71.1633 54.384H49.3233V50.8H74.5233V53.656L62.4273 68.832L60.4673 67.544H61.9793C66.6833 67.544 70.1926 68.5893 72.5073 70.68C74.8593 72.7707 76.0353 75.4587 76.0353 78.744C76.0353 80.9467 75.5126 82.9253 74.4673 84.68C73.422 86.4347 71.8353 87.816 69.7073 88.824C67.6166 89.832 64.9846 90.336 61.8113 90.336Z" fill="white"/>
</svg>
