<svg width="88" height="88" viewBox="0 0 88 88" fill="none" xmlns="http://www.w3.org/2000/svg">
<path d="M27.6839 88C60.8833 88 79.047 54.1403 79.047 24.7862C79.047 23.8343 79.0298 22.8612 78.9955 21.9094C82.5289 18.7645 85.5781 14.8691 88 10.4063C84.7093 12.2082 81.2154 13.385 77.6377 13.8966C81.4047 11.1176 84.2253 6.75185 85.5766 1.60876C82.0327 4.19356 78.1571 6.01692 74.1159 7.00067C71.3931 3.43997 67.793 1.08235 63.8722 0.292345C59.9514 -0.497664 55.9284 0.323931 52.4251 2.63011C48.9217 4.93628 46.1333 8.59858 44.4908 13.0508C42.8483 17.503 42.4432 22.4972 43.3383 27.2611C36.1625 26.8179 29.1424 24.5237 22.7333 20.5273C16.3241 16.5309 10.6689 10.9214 6.13422 4.06251C3.82946 8.953 3.12421 14.74 4.16178 20.2475C5.19935 25.7549 7.9019 30.5695 11.7202 33.7128C8.85364 33.6008 6.04991 32.6509 3.54063 30.9417V31.2167C3.53806 36.3489 4.97969 41.3238 7.62047 45.2958C10.2612 49.2677 13.9382 51.9916 18.0262 53.0044C15.3709 53.8985 12.5839 54.0288 9.88109 53.3851C11.0347 57.7988 13.2791 61.6592 16.3012 64.4275C19.3232 67.1957 22.9721 68.7337 26.7386 68.8269C20.3442 75.0086 12.4453 78.3616 4.31406 78.3457C2.87205 78.343 1.43146 78.2343 0 78.02C8.26047 84.5422 17.8696 88.0063 27.6839 88Z" fill="white"/>
</svg>
