<svg width="267" height="40" viewBox="0 0 267 40" fill="none" xmlns="http://www.w3.org/2000/svg">
<rect x="0.5" y="0.5" width="266" height="39" rx="5.5" fill="white" stroke="white"/>
<path d="M68.4749 25.18C67.6649 25.18 66.9099 25.05 66.2099 24.79C65.5199 24.52 64.9199 24.14 64.4099 23.65C63.8999 23.16 63.4999 22.585 63.2099 21.925C62.9299 21.265 62.7899 20.54 62.7899 19.75C62.7899 18.96 62.9299 18.235 63.2099 17.575C63.4999 16.915 63.8999 16.34 64.4099 15.85C64.9299 15.36 65.5349 14.985 66.2249 14.725C66.9149 14.455 67.6699 14.32 68.4899 14.32C69.3999 14.32 70.2199 14.48 70.9499 14.8C71.6899 15.11 72.3099 15.57 72.8099 16.18L71.2499 17.62C70.8899 17.21 70.4899 16.905 70.0499 16.705C69.6099 16.495 69.1299 16.39 68.6099 16.39C68.1199 16.39 67.6699 16.47 67.2599 16.63C66.8499 16.79 66.4949 17.02 66.1949 17.32C65.8949 17.62 65.6599 17.975 65.4899 18.385C65.3299 18.795 65.2499 19.25 65.2499 19.75C65.2499 20.25 65.3299 20.705 65.4899 21.115C65.6599 21.525 65.8949 21.88 66.1949 22.18C66.4949 22.48 66.8499 22.71 67.2599 22.87C67.6699 23.03 68.1199 23.11 68.6099 23.11C69.1299 23.11 69.6099 23.01 70.0499 22.81C70.4899 22.6 70.8899 22.285 71.2499 21.865L72.8099 23.305C72.3099 23.915 71.6899 24.38 70.9499 24.7C70.2199 25.02 69.3949 25.18 68.4749 25.18ZM77.6225 25.12C76.7625 25.12 75.9975 24.94 75.3275 24.58C74.6675 24.22 74.1425 23.73 73.7525 23.11C73.3725 22.48 73.1825 21.765 73.1825 20.965C73.1825 20.155 73.3725 19.44 73.7525 18.82C74.1425 18.19 74.6675 17.7 75.3275 17.35C75.9975 16.99 76.7625 16.81 77.6225 16.81C78.4725 16.81 79.2325 16.99 79.9025 17.35C80.5725 17.7 81.0975 18.185 81.4775 18.805C81.8575 19.425 82.0475 20.145 82.0475 20.965C82.0475 21.765 81.8575 22.48 81.4775 23.11C81.0975 23.73 80.5725 24.22 79.9025 24.58C79.2325 24.94 78.4725 25.12 77.6225 25.12ZM77.6225 23.2C78.0125 23.2 78.3625 23.11 78.6725 22.93C78.9825 22.75 79.2275 22.495 79.4075 22.165C79.5875 21.825 79.6775 21.425 79.6775 20.965C79.6775 20.495 79.5875 20.095 79.4075 19.765C79.2275 19.435 78.9825 19.18 78.6725 19C78.3625 18.82 78.0125 18.73 77.6225 18.73C77.2325 18.73 76.8825 18.82 76.5725 19C76.2625 19.18 76.0125 19.435 75.8225 19.765C75.6425 20.095 75.5525 20.495 75.5525 20.965C75.5525 21.425 75.6425 21.825 75.8225 22.165C76.0125 22.495 76.2625 22.75 76.5725 22.93C76.8825 23.11 77.2325 23.2 77.6225 23.2ZM88.2916 16.81C88.9316 16.81 89.5016 16.94 90.0016 17.2C90.5116 17.45 90.9116 17.84 91.2016 18.37C91.4916 18.89 91.6366 19.56 91.6366 20.38V25H89.2966V20.74C89.2966 20.09 89.1516 19.61 88.8616 19.3C88.5816 18.99 88.1816 18.835 87.6616 18.835C87.2916 18.835 86.9566 18.915 86.6566 19.075C86.3666 19.225 86.1366 19.46 85.9666 19.78C85.8066 20.1 85.7266 20.51 85.7266 21.01V25H83.3866V16.93H85.6216V19.165L85.2016 18.49C85.4916 17.95 85.9066 17.535 86.4466 17.245C86.9866 16.955 87.6016 16.81 88.2916 16.81ZM96.8327 25.12C95.8827 25.12 95.1427 24.88 94.6127 24.4C94.0827 23.91 93.8177 23.185 93.8177 22.225V15.145H96.1577V22.195C96.1577 22.535 96.2477 22.8 96.4277 22.99C96.6077 23.17 96.8527 23.26 97.1627 23.26C97.5327 23.26 97.8477 23.16 98.1077 22.96L98.7377 24.61C98.4977 24.78 98.2077 24.91 97.8677 25C97.5377 25.08 97.1927 25.12 96.8327 25.12ZM92.5727 18.91V17.11H98.1677V18.91H92.5727ZM99.8263 25V16.93H102.166V25H99.8263ZM100.996 15.805C100.566 15.805 100.216 15.68 99.9463 15.43C99.6763 15.18 99.5413 14.87 99.5413 14.5C99.5413 14.13 99.6763 13.82 99.9463 13.57C100.216 13.32 100.566 13.195 100.996 13.195C101.426 13.195 101.776 13.315 102.046 13.555C102.316 13.785 102.451 14.085 102.451 14.455C102.451 14.845 102.316 15.17 102.046 15.43C101.786 15.68 101.436 15.805 100.996 15.805ZM109.018 16.81C109.658 16.81 110.228 16.94 110.728 17.2C111.238 17.45 111.638 17.84 111.928 18.37C112.218 18.89 112.363 19.56 112.363 20.38V25H110.023V20.74C110.023 20.09 109.878 19.61 109.588 19.3C109.308 18.99 108.908 18.835 108.388 18.835C108.018 18.835 107.683 18.915 107.383 19.075C107.093 19.225 106.863 19.46 106.693 19.78C106.533 20.1 106.453 20.51 106.453 21.01V25H104.113V16.93H106.348V19.165L105.928 18.49C106.218 17.95 106.633 17.535 107.173 17.245C107.713 16.955 108.328 16.81 109.018 16.81ZM117.664 25.12C116.994 25.12 116.394 24.99 115.864 24.73C115.344 24.47 114.939 24.075 114.649 23.545C114.359 23.005 114.214 22.32 114.214 21.49V16.93H116.554V21.145C116.554 21.815 116.694 22.31 116.974 22.63C117.264 22.94 117.669 23.095 118.189 23.095C118.549 23.095 118.869 23.02 119.149 22.87C119.429 22.71 119.649 22.47 119.809 22.15C119.969 21.82 120.049 21.41 120.049 20.92V16.93H122.389V25H120.169V22.78L120.574 23.425C120.304 23.985 119.904 24.41 119.374 24.7C118.854 24.98 118.284 25.12 117.664 25.12ZM129.282 25V23.425L129.132 23.08V20.26C129.132 19.76 128.977 19.37 128.667 19.09C128.367 18.81 127.902 18.67 127.272 18.67C126.842 18.67 126.417 18.74 125.997 18.88C125.587 19.01 125.237 19.19 124.947 19.42L124.107 17.785C124.547 17.475 125.077 17.235 125.697 17.065C126.317 16.895 126.947 16.81 127.587 16.81C128.817 16.81 129.772 17.1 130.452 17.68C131.132 18.26 131.472 19.165 131.472 20.395V25H129.282ZM126.822 25.12C126.192 25.12 125.652 25.015 125.202 24.805C124.752 24.585 124.407 24.29 124.167 23.92C123.927 23.55 123.807 23.135 123.807 22.675C123.807 22.195 123.922 21.775 124.152 21.415C124.392 21.055 124.767 20.775 125.277 20.575C125.787 20.365 126.452 20.26 127.272 20.26H129.417V21.625H127.527C126.977 21.625 126.597 21.715 126.387 21.895C126.187 22.075 126.087 22.3 126.087 22.57C126.087 22.87 126.202 23.11 126.432 23.29C126.672 23.46 126.997 23.545 127.407 23.545C127.797 23.545 128.147 23.455 128.457 23.275C128.767 23.085 128.992 22.81 129.132 22.45L129.492 23.53C129.322 24.05 129.012 24.445 128.562 24.715C128.112 24.985 127.532 25.12 126.822 25.12ZM133.365 25V16.93H135.6V19.21L135.285 18.55C135.525 17.98 135.91 17.55 136.44 17.26C136.97 16.96 137.615 16.81 138.375 16.81V18.97C138.275 18.96 138.185 18.955 138.105 18.955C138.025 18.945 137.94 18.94 137.85 18.94C137.21 18.94 136.69 19.125 136.29 19.495C135.9 19.855 135.705 20.42 135.705 21.19V25H133.365ZM147.523 25.12C146.653 25.12 145.878 24.945 145.198 24.595C144.518 24.235 143.983 23.74 143.593 23.11C143.213 22.48 143.023 21.765 143.023 20.965C143.023 20.155 143.213 19.44 143.593 18.82C143.983 18.19 144.518 17.7 145.198 17.35C145.878 16.99 146.653 16.81 147.523 16.81C148.373 16.81 149.113 16.99 149.743 17.35C150.373 17.7 150.838 18.205 151.138 18.865L149.323 19.84C149.113 19.46 148.848 19.18 148.528 19C148.218 18.82 147.878 18.73 147.508 18.73C147.108 18.73 146.748 18.82 146.428 19C146.108 19.18 145.853 19.435 145.663 19.765C145.483 20.095 145.393 20.495 145.393 20.965C145.393 21.435 145.483 21.835 145.663 22.165C145.853 22.495 146.108 22.75 146.428 22.93C146.748 23.11 147.108 23.2 147.508 23.2C147.878 23.2 148.218 23.115 148.528 22.945C148.848 22.765 149.113 22.48 149.323 22.09L151.138 23.08C150.838 23.73 150.373 24.235 149.743 24.595C149.113 24.945 148.373 25.12 147.523 25.12ZM155.998 25.12C155.138 25.12 154.373 24.94 153.703 24.58C153.043 24.22 152.518 23.73 152.128 23.11C151.748 22.48 151.558 21.765 151.558 20.965C151.558 20.155 151.748 19.44 152.128 18.82C152.518 18.19 153.043 17.7 153.703 17.35C154.373 16.99 155.138 16.81 155.998 16.81C156.848 16.81 157.608 16.99 158.278 17.35C158.948 17.7 159.473 18.185 159.853 18.805C160.233 19.425 160.423 20.145 160.423 20.965C160.423 21.765 160.233 22.48 159.853 23.11C159.473 23.73 158.948 24.22 158.278 24.58C157.608 24.94 156.848 25.12 155.998 25.12ZM155.998 23.2C156.388 23.2 156.738 23.11 157.048 22.93C157.358 22.75 157.603 22.495 157.783 22.165C157.963 21.825 158.053 21.425 158.053 20.965C158.053 20.495 157.963 20.095 157.783 19.765C157.603 19.435 157.358 19.18 157.048 19C156.738 18.82 156.388 18.73 155.998 18.73C155.608 18.73 155.258 18.82 154.948 19C154.638 19.18 154.388 19.435 154.198 19.765C154.018 20.095 153.928 20.495 153.928 20.965C153.928 21.425 154.018 21.825 154.198 22.165C154.388 22.495 154.638 22.75 154.948 22.93C155.258 23.11 155.608 23.2 155.998 23.2ZM172.097 16.81C172.737 16.81 173.302 16.94 173.792 17.2C174.292 17.45 174.682 17.84 174.962 18.37C175.252 18.89 175.397 19.56 175.397 20.38V25H173.057V20.74C173.057 20.09 172.922 19.61 172.652 19.3C172.382 18.99 172.002 18.835 171.512 18.835C171.172 18.835 170.867 18.915 170.597 19.075C170.327 19.225 170.117 19.455 169.967 19.765C169.817 20.075 169.742 20.47 169.742 20.95V25H167.402V20.74C167.402 20.09 167.267 19.61 166.997 19.3C166.737 18.99 166.362 18.835 165.872 18.835C165.532 18.835 165.227 18.915 164.957 19.075C164.687 19.225 164.477 19.455 164.327 19.765C164.177 20.075 164.102 20.47 164.102 20.95V25H161.762V16.93H163.997V19.135L163.577 18.49C163.857 17.94 164.252 17.525 164.762 17.245C165.282 16.955 165.872 16.81 166.532 16.81C167.272 16.81 167.917 17 168.467 17.38C169.027 17.75 169.397 18.32 169.577 19.09L168.752 18.865C169.022 18.235 169.452 17.735 170.042 17.365C170.642 16.995 171.327 16.81 172.097 16.81ZM186.527 25.18C185.697 25.18 184.932 25.05 184.232 24.79C183.542 24.52 182.937 24.14 182.417 23.65C181.907 23.16 181.507 22.585 181.217 21.925C180.937 21.265 180.797 20.54 180.797 19.75C180.797 18.96 180.937 18.235 181.217 17.575C181.507 16.915 181.912 16.34 182.432 15.85C182.952 15.36 183.562 14.985 184.262 14.725C184.962 14.455 185.732 14.32 186.572 14.32C187.502 14.32 188.337 14.475 189.077 14.785C189.827 15.095 190.457 15.545 190.967 16.135L189.407 17.575C189.027 17.175 188.612 16.88 188.162 16.69C187.712 16.49 187.222 16.39 186.692 16.39C186.182 16.39 185.717 16.47 185.297 16.63C184.877 16.79 184.512 17.02 184.202 17.32C183.902 17.62 183.667 17.975 183.497 18.385C183.337 18.795 183.257 19.25 183.257 19.75C183.257 20.24 183.337 20.69 183.497 21.1C183.667 21.51 183.902 21.87 184.202 22.18C184.512 22.48 184.872 22.71 185.282 22.87C185.702 23.03 186.162 23.11 186.662 23.11C187.142 23.11 187.607 23.035 188.057 22.885C188.517 22.725 188.962 22.46 189.392 22.09L190.772 23.845C190.202 24.275 189.537 24.605 188.777 24.835C188.027 25.065 187.277 25.18 186.527 25.18ZM188.552 23.53V19.585H190.772V23.845L188.552 23.53ZM196.479 25.12C195.619 25.12 194.854 24.94 194.184 24.58C193.524 24.22 192.999 23.73 192.609 23.11C192.229 22.48 192.039 21.765 192.039 20.965C192.039 20.155 192.229 19.44 192.609 18.82C192.999 18.19 193.524 17.7 194.184 17.35C194.854 16.99 195.619 16.81 196.479 16.81C197.329 16.81 198.089 16.99 198.759 17.35C199.429 17.7 199.954 18.185 200.334 18.805C200.714 19.425 200.904 20.145 200.904 20.965C200.904 21.765 200.714 22.48 200.334 23.11C199.954 23.73 199.429 24.22 198.759 24.58C198.089 24.94 197.329 25.12 196.479 25.12ZM196.479 23.2C196.869 23.2 197.219 23.11 197.529 22.93C197.839 22.75 198.084 22.495 198.264 22.165C198.444 21.825 198.534 21.425 198.534 20.965C198.534 20.495 198.444 20.095 198.264 19.765C198.084 19.435 197.839 19.18 197.529 19C197.219 18.82 196.869 18.73 196.479 18.73C196.089 18.73 195.739 18.82 195.429 19C195.119 19.18 194.869 19.435 194.679 19.765C194.499 20.095 194.409 20.495 194.409 20.965C194.409 21.425 194.499 21.825 194.679 22.165C194.869 22.495 195.119 22.75 195.429 22.93C195.739 23.11 196.089 23.2 196.479 23.2ZM206.083 25.12C205.223 25.12 204.458 24.94 203.788 24.58C203.128 24.22 202.603 23.73 202.213 23.11C201.833 22.48 201.643 21.765 201.643 20.965C201.643 20.155 201.833 19.44 202.213 18.82C202.603 18.19 203.128 17.7 203.788 17.35C204.458 16.99 205.223 16.81 206.083 16.81C206.933 16.81 207.693 16.99 208.363 17.35C209.033 17.7 209.558 18.185 209.938 18.805C210.318 19.425 210.508 20.145 210.508 20.965C210.508 21.765 210.318 22.48 209.938 23.11C209.558 23.73 209.033 24.22 208.363 24.58C207.693 24.94 206.933 25.12 206.083 25.12ZM206.083 23.2C206.473 23.2 206.823 23.11 207.133 22.93C207.443 22.75 207.688 22.495 207.868 22.165C208.048 21.825 208.138 21.425 208.138 20.965C208.138 20.495 208.048 20.095 207.868 19.765C207.688 19.435 207.443 19.18 207.133 19C206.823 18.82 206.473 18.73 206.083 18.73C205.693 18.73 205.343 18.82 205.033 19C204.723 19.18 204.473 19.435 204.283 19.765C204.103 20.095 204.013 20.495 204.013 20.965C204.013 21.425 204.103 21.825 204.283 22.165C204.473 22.495 204.723 22.75 205.033 22.93C205.343 23.11 205.693 23.2 206.083 23.2ZM215.643 28.03C214.883 28.03 214.148 27.935 213.438 27.745C212.738 27.565 212.153 27.29 211.683 26.92L212.613 25.24C212.953 25.52 213.383 25.74 213.903 25.9C214.433 26.07 214.953 26.155 215.463 26.155C216.293 26.155 216.893 25.97 217.263 25.6C217.643 25.23 217.833 24.68 217.833 23.95V22.735L217.983 20.71L217.953 18.67V16.93H220.173V23.65C220.173 25.15 219.783 26.255 219.003 26.965C218.223 27.675 217.103 28.03 215.643 28.03ZM215.283 24.61C214.533 24.61 213.853 24.45 213.243 24.13C212.643 23.8 212.158 23.345 211.788 22.765C211.428 22.175 211.248 21.49 211.248 20.71C211.248 19.92 211.428 19.235 211.788 18.655C212.158 18.065 212.643 17.61 213.243 17.29C213.853 16.97 214.533 16.81 215.283 16.81C215.963 16.81 216.563 16.95 217.083 17.23C217.603 17.5 218.008 17.925 218.298 18.505C218.588 19.075 218.733 19.81 218.733 20.71C218.733 21.6 218.588 22.335 218.298 22.915C218.008 23.485 217.603 23.91 217.083 24.19C216.563 24.47 215.963 24.61 215.283 24.61ZM215.748 22.69C216.158 22.69 216.523 22.61 216.843 22.45C217.163 22.28 217.413 22.045 217.593 21.745C217.773 21.445 217.863 21.1 217.863 20.71C217.863 20.31 217.773 19.965 217.593 19.675C217.413 19.375 217.163 19.145 216.843 18.985C216.523 18.815 216.158 18.73 215.748 18.73C215.338 18.73 214.973 18.815 214.653 18.985C214.333 19.145 214.078 19.375 213.888 19.675C213.708 19.965 213.618 20.31 213.618 20.71C213.618 21.1 213.708 21.445 213.888 21.745C214.078 22.045 214.333 22.28 214.653 22.45C214.973 22.61 215.338 22.69 215.748 22.69ZM222.126 25V13.87H224.466V25H222.126ZM230.417 25.12C229.497 25.12 228.687 24.94 227.987 24.58C227.297 24.22 226.762 23.73 226.382 23.11C226.002 22.48 225.812 21.765 225.812 20.965C225.812 20.155 225.997 19.44 226.367 18.82C226.747 18.19 227.262 17.7 227.912 17.35C228.562 16.99 229.297 16.81 230.117 16.81C230.907 16.81 231.617 16.98 232.247 17.32C232.887 17.65 233.392 18.13 233.762 18.76C234.132 19.38 234.317 20.125 234.317 20.995C234.317 21.085 234.312 21.19 234.302 21.31C234.292 21.42 234.282 21.525 234.272 21.625H227.717V20.26H233.042L232.142 20.665C232.142 20.245 232.057 19.88 231.887 19.57C231.717 19.26 231.482 19.02 231.182 18.85C230.882 18.67 230.532 18.58 230.132 18.58C229.732 18.58 229.377 18.67 229.067 18.85C228.767 19.02 228.532 19.265 228.362 19.585C228.192 19.895 228.107 20.265 228.107 20.695V21.055C228.107 21.495 228.202 21.885 228.392 22.225C228.592 22.555 228.867 22.81 229.217 22.99C229.577 23.16 229.997 23.245 230.477 23.245C230.907 23.245 231.282 23.18 231.602 23.05C231.932 22.92 232.232 22.725 232.502 22.465L233.747 23.815C233.377 24.235 232.912 24.56 232.352 24.79C231.792 25.01 231.147 25.12 230.417 25.12Z" fill="#52BCBF"/>
<g clip-path="url(#clip0_665_389)">
<path d="M55.7663 20.2765C55.7663 19.4608 55.7001 18.6406 55.559 17.8381H44.2402V22.4591H50.722C50.453 23.9495 49.5888 25.2679 48.3233 26.1056V29.104H52.1903C54.4611 27.014 55.7663 23.9274 55.7663 20.2765Z" fill="#4285F4"/>
<path d="M44.2401 32.0008C47.4766 32.0008 50.2059 30.9382 52.1945 29.1039L48.3276 26.1055C47.2517 26.8375 45.8627 27.252 44.2445 27.252C41.1139 27.252 38.4595 25.1399 37.507 22.3003H33.5166V25.3912C35.5537 29.4434 39.7029 32.0008 44.2401 32.0008V32.0008Z" fill="#34A853"/>
<path d="M37.5028 22.3002C37.0001 20.8099 37.0001 19.196 37.5028 17.7057V14.6147H33.5167C31.8147 18.0055 31.8147 22.0004 33.5167 25.3912L37.5028 22.3002V22.3002Z" fill="#FBBC04"/>
<path d="M44.2401 12.7497C45.9509 12.7232 47.6044 13.367 48.8434 14.5487L52.2695 11.1226C50.1001 9.0855 47.2208 7.96553 44.2401 8.00081C39.7029 8.00081 35.5537 10.5582 33.5166 14.6148L37.5026 17.7058C38.4506 14.8617 41.1095 12.7497 44.2401 12.7497V12.7497Z" fill="#EA4335"/>
</g>
<defs>
<clipPath id="clip0_665_389">
<rect width="24" height="24" fill="white" transform="translate(32 8)"/>
</clipPath>
</defs>
</svg>
