<svg width="175" height="56" viewBox="0 0 175 56" fill="none" xmlns="http://www.w3.org/2000/svg">
<path d="M71.968 33.192C70.576 33.192 69.336 32.912 68.248 32.352C67.16 31.776 66.304 30.984 65.68 29.976C65.072 28.968 64.768 27.824 64.768 26.544C64.768 25.248 65.072 24.104 65.68 23.112C66.304 22.104 67.16 21.32 68.248 20.76C69.336 20.184 70.576 19.896 71.968 19.896C73.328 19.896 74.512 20.184 75.52 20.76C76.528 21.32 77.272 22.128 77.752 23.184L74.848 24.744C74.512 24.136 74.088 23.688 73.576 23.4C73.08 23.112 72.536 22.968 71.944 22.968C71.304 22.968 70.728 23.112 70.216 23.4C69.704 23.688 69.296 24.096 68.992 24.624C68.704 25.152 68.56 25.792 68.56 26.544C68.56 27.296 68.704 27.936 68.992 28.464C69.296 28.992 69.704 29.4 70.216 29.688C70.728 29.976 71.304 30.12 71.944 30.12C72.536 30.12 73.08 29.984 73.576 29.712C74.088 29.424 74.512 28.968 74.848 28.344L77.752 29.928C77.272 30.968 76.528 31.776 75.52 32.352C74.512 32.912 73.328 33.192 71.968 33.192ZM84.9957 33.192C83.9237 33.192 82.9637 32.984 82.1157 32.568C81.2837 32.152 80.6357 31.52 80.1717 30.672C79.7077 29.808 79.4757 28.712 79.4757 27.384V20.088H83.2197V26.832C83.2197 27.904 83.4437 28.696 83.8917 29.208C84.3557 29.704 85.0037 29.952 85.8357 29.952C86.4117 29.952 86.9237 29.832 87.3717 29.592C87.8197 29.336 88.1717 28.952 88.4277 28.44C88.6837 27.912 88.8117 27.256 88.8117 26.472V20.088H92.5557V33H89.0037V29.448L89.6517 30.48C89.2197 31.376 88.5797 32.056 87.7317 32.52C86.8997 32.968 85.9877 33.192 84.9957 33.192ZM95.6643 33V20.088H99.2403V23.736L98.7363 22.68C99.1203 21.768 99.7363 21.08 100.584 20.616C101.432 20.136 102.464 19.896 103.68 19.896V23.352C103.52 23.336 103.376 23.328 103.248 23.328C103.12 23.312 102.984 23.304 102.84 23.304C101.816 23.304 100.984 23.6 100.344 24.192C99.7203 24.768 99.4083 25.672 99.4083 26.904V33H95.6643ZM111.272 33.192C109.752 33.192 108.568 32.808 107.72 32.04C106.872 31.256 106.448 30.096 106.448 28.56V17.232H110.192V28.512C110.192 29.056 110.336 29.48 110.624 29.784C110.912 30.072 111.304 30.216 111.8 30.216C112.392 30.216 112.896 30.056 113.312 29.736L114.32 32.376C113.936 32.648 113.472 32.856 112.928 33C112.4 33.128 111.848 33.192 111.272 33.192ZM104.456 23.256V20.376H113.408V23.256H104.456ZM116.061 33V20.088H119.805V33H116.061ZM117.933 18.288C117.245 18.288 116.685 18.088 116.253 17.688C115.821 17.288 115.605 16.792 115.605 16.2C115.605 15.608 115.821 15.112 116.253 14.712C116.685 14.312 117.245 14.112 117.933 14.112C118.621 14.112 119.181 14.304 119.613 14.688C120.045 15.056 120.261 15.536 120.261 16.128C120.261 16.752 120.045 17.272 119.613 17.688C119.197 18.088 118.637 18.288 117.933 18.288ZM122.92 33V20.088H126.496V23.736L125.992 22.68C126.376 21.768 126.992 21.08 127.84 20.616C128.688 20.136 129.72 19.896 130.936 19.896V23.352C130.776 23.336 130.632 23.328 130.504 23.328C130.376 23.312 130.24 23.304 130.096 23.304C129.072 23.304 128.24 23.6 127.6 24.192C126.976 24.768 126.664 25.672 126.664 26.904V33H122.92Z" fill="white"/>
<g clip-path="url(#clip0_545_375)">
<path d="M27 47.25C38.1838 47.25 47.25 38.1838 47.25 27C47.25 15.8162 38.1838 6.75 27 6.75C15.8162 6.75 6.75 15.8162 6.75 27C6.75 38.1838 15.8162 47.25 27 47.25Z" stroke="white" stroke-width="5" stroke-linecap="round" stroke-linejoin="round"/>
<path d="M20.25 20.25H20.2725" stroke="white" stroke-width="5" stroke-linecap="round" stroke-linejoin="round"/>
<path d="M33.75 20.25H33.7725" stroke="white" stroke-width="5" stroke-linecap="round" stroke-linejoin="round"/>
<path d="M36 29.25H18M18 29.25C18 31.6369 18.9482 33.9261 20.636 35.614C22.3239 37.3018 24.6131 38.25 27 38.25C29.3869 38.25 31.6761 37.3018 33.364 35.614C35.0518 33.9261 36 31.6369 36 29.25H18Z" stroke="white" stroke-width="5" stroke-linecap="round" stroke-linejoin="round"/>
</g>
<defs>
<clipPath id="clip0_545_375">
<rect width="54" height="54" fill="white"/>
</clipPath>
</defs>
</svg>
