<svg width="175" height="56" viewBox="0 0 175 56" fill="none" xmlns="http://www.w3.org/2000/svg">
<path d="M71.272 33.192C70.056 33.192 68.96 32.92 67.984 32.376C67.008 31.816 66.232 31.04 65.656 30.048C65.096 29.056 64.816 27.888 64.816 26.544C64.816 25.184 65.096 24.008 65.656 23.016C66.232 22.024 67.008 21.256 67.984 20.712C68.96 20.168 70.056 19.896 71.272 19.896C72.36 19.896 73.312 20.136 74.128 20.616C74.944 21.096 75.576 21.824 76.024 22.8C76.472 23.776 76.696 25.024 76.696 26.544C76.696 28.048 76.48 29.296 76.048 30.288C75.616 31.264 74.992 31.992 74.176 32.472C73.376 32.952 72.408 33.192 71.272 33.192ZM71.92 30.12C72.528 30.12 73.08 29.976 73.576 29.688C74.072 29.4 74.464 28.992 74.752 28.464C75.056 27.92 75.208 27.28 75.208 26.544C75.208 25.792 75.056 25.152 74.752 24.624C74.464 24.096 74.072 23.688 73.576 23.4C73.08 23.112 72.528 22.968 71.92 22.968C71.296 22.968 70.736 23.112 70.24 23.4C69.744 23.688 69.344 24.096 69.04 24.624C68.752 25.152 68.608 25.792 68.608 26.544C68.608 27.28 68.752 27.92 69.04 28.464C69.344 28.992 69.744 29.4 70.24 29.688C70.736 29.976 71.296 30.12 71.92 30.12ZM75.304 33V30.36L75.376 26.52L75.136 22.704V15.192H78.88V33H75.304ZM88.3932 33.192C86.9212 33.192 85.6252 32.904 84.5052 32.328C83.4012 31.752 82.5452 30.968 81.9372 29.976C81.3292 28.968 81.0252 27.824 81.0252 26.544C81.0252 25.248 81.3212 24.104 81.9132 23.112C82.5212 22.104 83.3452 21.32 84.3852 20.76C85.4252 20.184 86.6012 19.896 87.9132 19.896C89.1772 19.896 90.3132 20.168 91.3212 20.712C92.3452 21.24 93.1532 22.008 93.7452 23.016C94.3372 24.008 94.6332 25.2 94.6332 26.592C94.6332 26.736 94.6252 26.904 94.6092 27.096C94.5932 27.272 94.5772 27.44 94.5612 27.6H84.0732V25.416H92.5932L91.1532 26.064C91.1532 25.392 91.0172 24.808 90.7452 24.312C90.4732 23.816 90.0972 23.432 89.6172 23.16C89.1372 22.872 88.5772 22.728 87.9372 22.728C87.2972 22.728 86.7292 22.872 86.2332 23.16C85.7532 23.432 85.3772 23.824 85.1052 24.336C84.8332 24.832 84.6972 25.424 84.6972 26.112V26.688C84.6972 27.392 84.8492 28.016 85.1532 28.56C85.4732 29.088 85.9132 29.496 86.4732 29.784C87.0492 30.056 87.7212 30.192 88.4892 30.192C89.1772 30.192 89.7772 30.088 90.2892 29.88C90.8172 29.672 91.2972 29.36 91.7292 28.944L93.7212 31.104C93.1292 31.776 92.3852 32.296 91.4892 32.664C90.5932 33.016 89.5612 33.192 88.3932 33.192ZM101.11 33.192C100.006 33.192 98.9418 33.064 97.9178 32.808C96.9098 32.536 96.1098 32.2 95.5178 31.8L96.7658 29.112C97.3578 29.48 98.0538 29.784 98.8538 30.024C99.6698 30.248 100.47 30.36 101.254 30.36C102.118 30.36 102.726 30.256 103.078 30.048C103.446 29.84 103.63 29.552 103.63 29.184C103.63 28.88 103.486 28.656 103.198 28.512C102.926 28.352 102.558 28.232 102.094 28.152C101.63 28.072 101.118 27.992 100.558 27.912C100.014 27.832 99.4618 27.728 98.9018 27.6C98.3418 27.456 97.8298 27.248 97.3658 26.976C96.9018 26.704 96.5258 26.336 96.2378 25.872C95.9658 25.408 95.8298 24.808 95.8298 24.072C95.8298 23.256 96.0618 22.536 96.5258 21.912C97.0058 21.288 97.6938 20.8 98.5898 20.448C99.4858 20.08 100.558 19.896 101.806 19.896C102.686 19.896 103.582 19.992 104.494 20.184C105.406 20.376 106.166 20.656 106.774 21.024L105.526 23.688C104.902 23.32 104.27 23.072 103.63 22.944C103.006 22.8 102.398 22.728 101.806 22.728C100.974 22.728 100.366 22.84 99.9818 23.064C99.5978 23.288 99.4058 23.576 99.4058 23.928C99.4058 24.248 99.5418 24.488 99.8138 24.648C100.102 24.808 100.478 24.936 100.942 25.032C101.406 25.128 101.91 25.216 102.454 25.296C103.014 25.36 103.574 25.464 104.134 25.608C104.694 25.752 105.198 25.96 105.646 26.232C106.11 26.488 106.486 26.848 106.774 27.312C107.062 27.76 107.206 28.352 107.206 29.088C107.206 29.888 106.966 30.6 106.486 31.224C106.006 31.832 105.31 32.312 104.398 32.664C103.502 33.016 102.406 33.192 101.11 33.192ZM115.396 33.192C114.004 33.192 112.764 32.912 111.676 32.352C110.588 31.776 109.732 30.984 109.108 29.976C108.5 28.968 108.196 27.824 108.196 26.544C108.196 25.248 108.5 24.104 109.108 23.112C109.732 22.104 110.588 21.32 111.676 20.76C112.764 20.184 114.004 19.896 115.396 19.896C116.756 19.896 117.94 20.184 118.948 20.76C119.956 21.32 120.7 22.128 121.18 23.184L118.276 24.744C117.94 24.136 117.516 23.688 117.004 23.4C116.508 23.112 115.964 22.968 115.372 22.968C114.732 22.968 114.156 23.112 113.644 23.4C113.132 23.688 112.724 24.096 112.42 24.624C112.132 25.152 111.988 25.792 111.988 26.544C111.988 27.296 112.132 27.936 112.42 28.464C112.724 28.992 113.132 29.4 113.644 29.688C114.156 29.976 114.732 30.12 115.372 30.12C115.964 30.12 116.508 29.984 117.004 29.712C117.516 29.424 117.94 28.968 118.276 28.344L121.18 29.928C120.7 30.968 119.956 31.776 118.948 32.352C117.94 32.912 116.756 33.192 115.396 33.192ZM128.424 33.192C127.352 33.192 126.392 32.984 125.544 32.568C124.712 32.152 124.064 31.52 123.6 30.672C123.136 29.808 122.904 28.712 122.904 27.384V20.088H126.648V26.832C126.648 27.904 126.872 28.696 127.32 29.208C127.784 29.704 128.432 29.952 129.264 29.952C129.84 29.952 130.352 29.832 130.8 29.592C131.248 29.336 131.6 28.952 131.856 28.44C132.112 27.912 132.24 27.256 132.24 26.472V20.088H135.984V33H132.432V29.448L133.08 30.48C132.648 31.376 132.008 32.056 131.16 32.52C130.328 32.968 129.416 33.192 128.424 33.192ZM139.092 33V20.088H142.668V23.736L142.164 22.68C142.548 21.768 143.164 21.08 144.012 20.616C144.86 20.136 145.892 19.896 147.108 19.896V23.352C146.948 23.336 146.804 23.328 146.676 23.328C146.548 23.312 146.412 23.304 146.268 23.304C145.244 23.304 144.412 23.6 143.772 24.192C143.148 24.768 142.836 25.672 142.836 26.904V33H139.092ZM154.7 33.192C153.18 33.192 151.996 32.808 151.148 32.04C150.3 31.256 149.876 30.096 149.876 28.56V17.232H153.62V28.512C153.62 29.056 153.764 29.48 154.052 29.784C154.34 30.072 154.732 30.216 155.228 30.216C155.82 30.216 156.324 30.056 156.74 29.736L157.748 32.376C157.364 32.648 156.9 32.856 156.356 33C155.828 33.128 155.276 33.192 154.7 33.192ZM147.884 23.256V20.376H156.836V23.256H147.884ZM159.489 33V20.088H163.233V33H159.489ZM161.361 18.288C160.673 18.288 160.113 18.088 159.681 17.688C159.249 17.288 159.033 16.792 159.033 16.2C159.033 15.608 159.249 15.112 159.681 14.712C160.113 14.312 160.673 14.112 161.361 14.112C162.049 14.112 162.609 14.304 163.041 14.688C163.473 15.056 163.689 15.536 163.689 16.128C163.689 16.752 163.473 17.272 163.041 17.688C162.625 18.088 162.065 18.288 161.361 18.288ZM166.348 33V20.088H169.924V23.736L169.42 22.68C169.804 21.768 170.42 21.08 171.268 20.616C172.116 20.136 173.148 19.896 174.364 19.896V23.352C174.204 23.336 174.06 23.328 173.932 23.328C173.804 23.312 173.668 23.304 173.524 23.304C172.5 23.304 171.668 23.6 171.028 24.192C170.404 24.768 170.092 25.672 170.092 26.904V33H166.348Z" fill="white"/>
<g clip-path="url(#clip0_545_376)">
<path d="M27 47.25C38.1838 47.25 47.25 38.1838 47.25 27C47.25 15.8162 38.1838 6.75 27 6.75C15.8162 6.75 6.75 15.8162 6.75 27C6.75 38.1838 15.8162 47.25 27 47.25Z" stroke="white" stroke-width="5" stroke-linecap="round" stroke-linejoin="round"/>
<path d="M20.25 22.5H20.2725" stroke="white" stroke-width="5" stroke-linecap="round" stroke-linejoin="round"/>
<path d="M33.75 22.5H33.7725" stroke="white" stroke-width="5" stroke-linecap="round" stroke-linejoin="round"/>
<path d="M21.375 34.313C22.1082 33.5646 22.9834 32.9701 23.9493 32.5643C24.9152 32.1584 25.9523 31.9493 27 31.9493C28.0477 31.9493 29.0848 32.1584 30.0507 32.5643C31.0166 32.9701 31.8918 33.5646 32.625 34.313" stroke="white" stroke-width="5" stroke-linecap="round" stroke-linejoin="round"/>
</g>
<defs>
<clipPath id="clip0_545_376">
<rect width="54" height="54" fill="white"/>
</clipPath>
</defs>
</svg>
