<svg width="88" height="88" viewBox="0 0 88 88" fill="none" xmlns="http://www.w3.org/2000/svg">
<path d="M36.2561 36.916C33.7481 36.916 31.7681 39.116 31.7681 41.8C31.7681 44.484 33.7921 46.684 36.2561 46.684C38.7641 46.684 40.7441 44.484 40.7441 41.8C40.7881 39.116 38.7641 36.916 36.2561 36.916ZM52.3161 36.916C49.8081 36.916 47.8281 39.116 47.8281 41.8C47.8281 44.484 49.8521 46.684 52.3161 46.684C54.8241 46.684 56.8041 44.484 56.8041 41.8C56.8041 39.116 54.8241 36.916 52.3161 36.916Z" fill="white"/>
<path d="M73.7019 0H14.7419C9.76992 0 5.72192 4.048 5.72192 9.064V68.552C5.72192 73.568 9.76992 77.616 14.7419 77.616H64.6379L62.3059 69.476L67.9379 74.712L73.2619 79.64L82.7219 88V9.064C82.7219 4.048 78.6739 0 73.7019 0ZM56.7179 57.464C56.7179 57.464 55.1339 55.572 53.8139 53.9C59.5779 52.272 61.7779 48.664 61.7779 48.664C59.9739 49.852 58.2579 50.688 56.7179 51.26C54.5179 52.184 52.4059 52.8 50.3379 53.152C46.1139 53.944 42.2419 53.724 38.9419 53.108C36.4339 52.624 34.2779 51.92 32.4739 51.216C31.4619 50.82 30.3619 50.336 29.2619 49.72C29.1299 49.632 28.9979 49.588 28.8659 49.5C28.7779 49.456 28.7339 49.412 28.6899 49.368C27.8979 48.928 27.4579 48.62 27.4579 48.62C27.4579 48.62 29.5699 52.14 35.1579 53.812C33.8379 55.484 32.2099 57.464 32.2099 57.464C22.4859 57.156 18.7899 50.776 18.7899 50.776C18.7899 36.608 25.1259 25.124 25.1259 25.124C31.4619 20.372 37.4899 20.504 37.4899 20.504L37.9299 21.032C30.0099 23.32 26.3579 26.796 26.3579 26.796C26.3579 26.796 27.3259 26.268 28.9539 25.52C33.6619 23.452 37.4019 22.88 38.9419 22.748C39.2059 22.704 39.4259 22.66 39.6899 22.66C42.3739 22.308 45.4099 22.22 48.5779 22.572C52.7579 23.056 57.2459 24.288 61.8219 26.796C61.8219 26.796 58.3459 23.496 50.8659 21.208L51.4819 20.504C51.4819 20.504 57.5099 20.372 63.8459 25.124C63.8459 25.124 70.1819 36.608 70.1819 50.776C70.1819 50.776 66.4419 57.156 56.7179 57.464V57.464Z" fill="white"/>
</svg>
