<svg width="84" height="83" viewBox="0 0 84 83" fill="none" xmlns="http://www.w3.org/2000/svg">
<path d="M4.194 61.07H10.242V63.41H4.194V61.07ZM4.41 68H1.494V55.4H11.016V57.74H4.41V68ZM18.1808 68V66.11L18.0008 65.696V62.312C18.0008 61.712 17.8148 61.244 17.4428 60.908C17.0828 60.572 16.5248 60.404 15.7688 60.404C15.2528 60.404 14.7428 60.488 14.2388 60.656C13.7468 60.812 13.3268 61.028 12.9788 61.304L11.9708 59.342C12.4988 58.97 13.1348 58.682 13.8788 58.478C14.6228 58.274 15.3788 58.172 16.1468 58.172C17.6228 58.172 18.7688 58.52 19.5848 59.216C20.4008 59.912 20.8088 60.998 20.8088 62.474V68H18.1808ZM15.2288 68.144C14.4728 68.144 13.8248 68.018 13.2848 67.766C12.7448 67.502 12.3308 67.148 12.0428 66.704C11.7548 66.26 11.6108 65.762 11.6108 65.21C11.6108 64.634 11.7488 64.13 12.0248 63.698C12.3128 63.266 12.7628 62.93 13.3748 62.69C13.9868 62.438 14.7848 62.312 15.7688 62.312H18.3428V63.95H16.0748C15.4148 63.95 14.9588 64.058 14.7068 64.274C14.4668 64.49 14.3468 64.76 14.3468 65.084C14.3468 65.444 14.4848 65.732 14.7608 65.948C15.0488 66.152 15.4388 66.254 15.9308 66.254C16.3988 66.254 16.8188 66.146 17.1908 65.93C17.5628 65.702 17.8328 65.372 18.0008 64.94L18.4328 66.236C18.2288 66.86 17.8568 67.334 17.3168 67.658C16.7768 67.982 16.0808 68.144 15.2288 68.144ZM25.5324 68L21.4644 58.316H24.3624L27.7464 66.65H26.3064L29.8164 58.316H32.5164L28.4304 68H25.5324ZM37.7366 68.144C36.7046 68.144 35.7866 67.928 34.9826 67.496C34.1906 67.064 33.5606 66.476 33.0926 65.732C32.6366 64.976 32.4086 64.118 32.4086 63.158C32.4086 62.186 32.6366 61.328 33.0926 60.584C33.5606 59.828 34.1906 59.24 34.9826 58.82C35.7866 58.388 36.7046 58.172 37.7366 58.172C38.7566 58.172 39.6686 58.388 40.4726 58.82C41.2766 59.24 41.9066 59.822 42.3626 60.566C42.8186 61.31 43.0466 62.174 43.0466 63.158C43.0466 64.118 42.8186 64.976 42.3626 65.732C41.9066 66.476 41.2766 67.064 40.4726 67.496C39.6686 67.928 38.7566 68.144 37.7366 68.144ZM37.7366 65.84C38.2046 65.84 38.6246 65.732 38.9966 65.516C39.3686 65.3 39.6626 64.994 39.8786 64.598C40.0946 64.19 40.2026 63.71 40.2026 63.158C40.2026 62.594 40.0946 62.114 39.8786 61.718C39.6626 61.322 39.3686 61.016 38.9966 60.8C38.6246 60.584 38.2046 60.476 37.7366 60.476C37.2686 60.476 36.8486 60.584 36.4766 60.8C36.1046 61.016 35.8046 61.322 35.5766 61.718C35.3606 62.114 35.2526 62.594 35.2526 63.158C35.2526 63.71 35.3606 64.19 35.5766 64.598C35.8046 64.994 36.1046 65.3 36.4766 65.516C36.8486 65.732 37.2686 65.84 37.7366 65.84ZM44.6535 68V58.316H47.3355V61.052L46.9575 60.26C47.2455 59.576 47.7075 59.06 48.3435 58.712C48.9795 58.352 49.7535 58.172 50.6655 58.172V60.764C50.5455 60.752 50.4375 60.746 50.3415 60.746C50.2455 60.734 50.1435 60.728 50.0355 60.728C49.2675 60.728 48.6435 60.95 48.1635 61.394C47.6955 61.826 47.4615 62.504 47.4615 63.428V68H44.6535ZM52.0827 68V58.316H54.8907V68H52.0827ZM53.4867 56.966C52.9707 56.966 52.5507 56.816 52.2267 56.516C51.9027 56.216 51.7407 55.844 51.7407 55.4C51.7407 54.956 51.9027 54.584 52.2267 54.284C52.5507 53.984 52.9707 53.834 53.4867 53.834C54.0027 53.834 54.4227 53.978 54.7467 54.266C55.0707 54.542 55.2327 54.902 55.2327 55.346C55.2327 55.814 55.0707 56.204 54.7467 56.516C54.4347 56.816 54.0147 56.966 53.4867 56.966ZM61.1868 68.144C60.0468 68.144 59.1588 67.856 58.5228 67.28C57.8868 66.692 57.5688 65.822 57.5688 64.67V56.174H60.3768V64.634C60.3768 65.042 60.4848 65.36 60.7008 65.588C60.9168 65.804 61.2108 65.912 61.5828 65.912C62.0268 65.912 62.4048 65.792 62.7168 65.552L63.4728 67.532C63.1848 67.736 62.8368 67.892 62.4288 68C62.0328 68.096 61.6188 68.144 61.1868 68.144ZM56.0748 60.692V58.532H62.7888V60.692H56.0748ZM70.719 68V66.11L70.539 65.696V62.312C70.539 61.712 70.353 61.244 69.981 60.908C69.621 60.572 69.063 60.404 68.307 60.404C67.791 60.404 67.281 60.488 66.777 60.656C66.285 60.812 65.865 61.028 65.517 61.304L64.509 59.342C65.037 58.97 65.673 58.682 66.417 58.478C67.161 58.274 67.917 58.172 68.685 58.172C70.161 58.172 71.307 58.52 72.123 59.216C72.939 59.912 73.347 60.998 73.347 62.474V68H70.719ZM67.767 68.144C67.011 68.144 66.363 68.018 65.823 67.766C65.283 67.502 64.869 67.148 64.581 66.704C64.293 66.26 64.149 65.762 64.149 65.21C64.149 64.634 64.287 64.13 64.563 63.698C64.851 63.266 65.301 62.93 65.913 62.69C66.525 62.438 67.323 62.312 68.307 62.312H70.881V63.95H68.613C67.953 63.95 67.497 64.058 67.245 64.274C67.005 64.49 66.885 64.76 66.885 65.084C66.885 65.444 67.023 65.732 67.299 65.948C67.587 66.152 67.977 66.254 68.469 66.254C68.937 66.254 69.357 66.146 69.729 65.93C70.101 65.702 70.371 65.372 70.539 64.94L70.971 66.236C70.767 66.86 70.395 67.334 69.855 67.658C69.315 67.982 68.619 68.144 67.767 68.144ZM75.6184 68V58.316H78.3004V61.052L77.9224 60.26C78.2104 59.576 78.6724 59.06 79.3084 58.712C79.9444 58.352 80.7184 58.172 81.6304 58.172V60.764C81.5104 60.752 81.4024 60.746 81.3064 60.746C81.2104 60.734 81.1084 60.728 81.0004 60.728C80.2324 60.728 79.6084 60.95 79.1284 61.394C78.6604 61.826 78.4264 62.504 78.4264 63.428V68H75.6184Z" fill="white"/>
<path d="M42.014 35.166L29.6526 42L32.014 27.5252L22 17.275L35.8193 15.1691L41.9999 2L48.1807 15.1691L62 17.275L51.9859 27.5252L54.3472 42L42.014 35.166Z" stroke="#52BCBF" stroke-width="2" stroke-linecap="round" stroke-linejoin="round"/>
<path d="M42.014 35.166L29.6526 42L32.014 27.5252L22 17.275L35.8193 15.1691L41.9999 2L48.1807 15.1691L62 17.275L51.9859 27.5252L54.3472 42L42.014 35.166Z" stroke="#52BCBF" stroke-width="3" stroke-linecap="round" stroke-linejoin="round"/>
<path d="M42.0119 33.1911L31.5048 39L33.5119 26.6964L25 17.9838L36.7464 16.1938L41.9999 5L47.2536 16.1938L59 17.9838L50.488 26.6964L52.4951 39L42.0119 33.1911Z" stroke="#52BCBF" stroke-width="3" stroke-linecap="round" stroke-linejoin="round"/>
<path d="M41.5108 32.0453L31.9308 37L33.7608 26.5058L26 19.0744L36.71 17.5476L41.4999 8L46.29 17.5476L57 19.0744L49.2391 26.5058L51.0691 37L41.5108 32.0453Z" stroke="#52BCBF" stroke-width="3" stroke-linecap="round" stroke-linejoin="round"/>
<path d="M41.508 32.0453L34.4003 37L35.758 26.5058L30 19.0744L37.9461 17.5476L41.5 8L45.0539 17.5476L53 19.0744L47.2419 26.5058L48.5996 37L41.508 32.0453Z" stroke="#52BCBF" stroke-width="3" stroke-linecap="round" stroke-linejoin="round"/>
<path d="M41.508 29.4121L34.4003 33L35.758 25.4007L30 20.0194L37.9461 18.9138L41.5 12L45.0539 18.9138L53 20.0194L47.2419 25.4007L48.5996 33L41.508 29.4121Z" stroke="#52BCBF" stroke-width="3" stroke-linecap="round" stroke-linejoin="round"/>
<path d="M42.5059 28.4372L37.2524 31L38.2559 25.5719L34 21.7281L39.8732 20.9384L42.5 16L45.1268 20.9384L51 21.7281L46.744 25.5719L47.7476 31L42.5059 28.4372Z" stroke="#52BCBF" stroke-width="3" stroke-linecap="round" stroke-linejoin="round"/>
<path d="M42.5059 28.4372L37.2524 31L38.2559 25.5719L34 21.7281L39.8732 20.9384L42.5 16L45.1268 20.9384L51 21.7281L46.744 25.5719L47.7476 31L42.5059 28.4372Z" stroke="#52BCBF" stroke-width="3" stroke-linecap="round" stroke-linejoin="round"/>
<path d="M42.5038 28.4372L39.1045 31L39.7538 25.5719L37 21.7281L40.8003 20.9384L42.5 16L44.1997 20.9384L48 21.7281L45.2461 25.5719L45.8955 31L42.5038 28.4372Z" stroke="#52BCBF" stroke-width="3" stroke-linecap="round" stroke-linejoin="round"/>
<path d="M42.5038 27.4623L39.1045 29L39.7538 25.7432L37 23.4369L40.8003 22.9631L42.5 20L44.1997 22.9631L48 23.4369L45.2461 25.7432L45.8955 29L42.5038 27.4623Z" stroke="#52BCBF" stroke-width="3" stroke-linecap="round" stroke-linejoin="round"/>
<path d="M40.0021 27.4623L38.1479 29L38.5021 25.7432L37 23.4369L39.0729 22.9631L40 20L40.9271 22.9631L43 23.4369L41.4979 25.7432L41.8521 29L40.0021 27.4623Z" stroke="#52BCBF" stroke-width="3" stroke-linecap="round" stroke-linejoin="round"/>
</svg>
