<svg xmlns="http://www.w3.org/2000/svg" xmlns:xlink="http://www.w3.org/1999/xlink" width="500" zoomAndPan="magnify" viewBox="0 0 375 374.999991" height="500" preserveAspectRatio="xMidYMid meet" version="1.0"><defs><clipPath id="id1"><path d="M 96.328125 67.273438 L 278.578125 67.273438 L 278.578125 308.023438 L 96.328125 308.023438 Z M 96.328125 67.273438 " clip-rule="nonzero"/></clipPath><clipPath id="id2"><path d="M 131.878906 78.636719 L 242.878906 78.636719 L 242.878906 296.136719 L 131.878906 296.136719 Z M 131.878906 78.636719 " clip-rule="nonzero"/></clipPath></defs><g clip-path="url(#id1)"><path fill="#9400d3" d="M 96.328125 67.277344 L 278.578125 67.277344 L 278.578125 308.023438 L 96.328125 308.023438 L 96.328125 67.277344 " fill-opacity="1" fill-rule="nonzero"/></g><g clip-path="url(#id2)"><path fill="#5ce1e6" d="M 157.59375 295.09375 C 156.746094 294.136719 156.4375 293.992188 155.222656 293.988281 C 154.457031 293.988281 152.867188 293.777344 151.695312 293.53125 C 150.519531 293.28125 148.300781 292.988281 146.765625 292.882812 C 144.21875 292.703125 143.761719 292.757812 141.5625 293.53125 C 140.238281 293.996094 138.757812 294.425781 138.269531 294.488281 C 137.78125 294.550781 137.234375 294.714844 137.046875 294.847656 C 136.859375 294.980469 136.164062 295.070312 135.496094 295.042969 C 134.472656 295.003906 134.109375 294.789062 133.128906 293.652344 C 132.394531 292.800781 131.972656 292 131.972656 291.464844 C 131.972656 291 132.996094 288.234375 134.25 285.316406 C 135.5 282.402344 136.738281 279.40625 136.996094 278.664062 C 137.722656 276.59375 138.640625 270.671875 138.839844 266.757812 C 138.941406 264.820312 139.148438 262.480469 139.300781 261.554688 C 139.453125 260.628906 139.734375 258.425781 139.921875 256.660156 C 140.234375 253.765625 140.480469 252.125 141.4375 246.558594 C 141.78125 244.570312 142.234375 240.914062 142.6875 236.460938 C 143.085938 232.535156 143.660156 229.613281 144.8125 225.597656 C 145.296875 223.914062 145.765625 222.125 145.851562 221.621094 C 146.078125 220.316406 147.238281 216.082031 147.863281 214.277344 C 148.585938 212.199219 149.699219 208.121094 149.699219 207.558594 C 149.699219 207.039062 151.195312 202.3125 153.429688 195.761719 C 154.261719 193.320312 154.992188 191.082031 155.054688 190.789062 C 155.117188 190.492188 155.230469 190.148438 155.308594 190.023438 C 155.386719 189.898438 155.523438 189.3125 155.621094 188.722656 C 155.714844 188.132812 156.085938 186.824219 156.445312 185.816406 C 156.804688 184.804688 157.375 183.152344 157.707031 182.144531 C 158.371094 180.148438 158.632812 179.433594 160.074219 175.667969 C 161.234375 172.628906 162.902344 168.050781 164.117188 164.546875 C 164.613281 163.117188 165.140625 161.671875 165.289062 161.335938 C 167.046875 157.347656 168.046875 151.527344 168.050781 145.269531 C 168.054688 140.773438 167.882812 139.417969 166.683594 134.558594 C 166.246094 132.792969 165.761719 130.804688 165.609375 130.140625 C 165.25 128.609375 165.453125 118.121094 165.882812 115.890625 C 166.320312 113.625 166.679688 112.785156 168.40625 109.976562 C 169.214844 108.660156 169.875 107.480469 169.875 107.359375 C 169.875 106.910156 174.050781 103.125 175.683594 102.089844 C 177.300781 101.066406 182.011719 98.675781 184.242188 97.75 C 185.882812 97.066406 189.5 95.871094 193.71875 94.609375 C 203.195312 91.785156 204.601562 91.320312 205.109375 90.871094 C 205.402344 90.609375 205.898438 90.242188 206.210938 90.058594 C 207.828125 89.105469 209.640625 87.800781 211.15625 86.492188 C 212.089844 85.6875 213.671875 84.589844 214.671875 84.050781 C 215.671875 83.511719 216.765625 82.90625 217.105469 82.703125 C 218.648438 81.765625 228.3125 79.285156 231.878906 78.90625 C 234.222656 78.65625 240.285156 78.964844 241.863281 79.414062 C 242.550781 79.605469 242.78125 79.855469 242.78125 80.390625 C 242.78125 81.007812 242.457031 81.226562 240.488281 81.941406 C 236.714844 83.3125 235.152344 83.984375 233.578125 84.917969 C 228.519531 87.921875 226.144531 90.257812 224 94.316406 C 223.46875 95.328125 222.914062 96.359375 222.769531 96.613281 C 221.746094 98.410156 219.089844 104.054688 219.089844 104.4375 C 219.089844 104.695312 218.746094 105.414062 218.324219 106.03125 C 217.90625 106.652344 217.5625 107.339844 217.5625 107.5625 C 217.5625 108.140625 216.355469 110.714844 215.847656 111.222656 C 215.613281 111.457031 215.421875 111.753906 215.421875 111.878906 C 215.421875 112 215.175781 112.371094 214.878906 112.695312 C 214.578125 113.023438 213.71875 114.183594 212.96875 115.28125 C 212.214844 116.375 211.503906 117.34375 211.382812 117.433594 C 211.261719 117.523438 210.023438 119.863281 208.625 122.636719 C 205.195312 129.441406 204.242188 132.984375 204.316406 138.664062 C 204.371094 142.914062 204.703125 144.730469 206.441406 150.339844 C 207.019531 152.203125 207.570312 154.265625 207.660156 154.929688 C 207.753906 155.589844 207.945312 156.410156 208.089844 156.746094 C 208.683594 158.148438 209.007812 159.589844 208.828125 160.058594 C 208.722656 160.332031 208.914062 161.144531 209.25 161.863281 C 210.117188 163.710938 210.113281 163.695312 210.972656 170.976562 C 211.917969 178.941406 212.535156 182.902344 213.136719 184.785156 C 213.382812 185.566406 213.589844 186.601562 213.589844 187.082031 C 213.589844 187.5625 213.71875 188.441406 213.871094 189.03125 C 214.210938 190.332031 214.425781 192.597656 214.675781 197.445312 C 214.910156 202.078125 215.285156 204.605469 216.476562 209.6875 C 218.0625 216.441406 218.492188 227.59375 217.351562 232.484375 C 216.324219 236.902344 214.59375 240.441406 210.660156 246.15625 C 208.777344 248.898438 207.167969 252.03125 207.167969 252.964844 C 207.167969 253.246094 207.054688 253.609375 206.914062 253.769531 C 206.492188 254.246094 205.722656 256.691406 205.375 258.648438 C 205.199219 259.660156 204.964844 262.6875 204.855469 265.382812 C 204.578125 272.308594 205.125 274.765625 207.800781 278.6875 C 209.085938 280.566406 209.8125 281.285156 212.578125 283.417969 C 214.304688 284.75 214.671875 284.898438 216.769531 285.136719 C 218.035156 285.277344 219.316406 285.527344 219.617188 285.6875 C 220.625 286.234375 221.613281 287.53125 221.613281 288.316406 C 221.613281 289.164062 221.003906 290.101562 220.609375 289.855469 C 220.472656 289.773438 219.972656 289.855469 219.496094 290.035156 C 218.023438 290.601562 216.046875 290.714844 202.125 291.058594 L 196.121094 291.214844 C 195.449219 291.234375 195.28125 291.417969 195.117188 292.296875 C 194.789062 294.039062 192.585938 295.296875 190.300781 295.042969 C 187.914062 294.78125 183.429688 294.222656 182.886719 294.121094 C 182.558594 294.058594 179.535156 293.929688 176.160156 293.835938 C 169.6875 293.652344 168.867188 293.742188 163.761719 295.21875 C 162.5 295.585938 160.816406 295.953125 160.015625 296.039062 C 158.652344 296.1875 158.507812 296.128906 157.589844 295.09375 Z M 162.449219 285.800781 C 166.816406 281.46875 169.195312 279.679688 171.695312 278.851562 C 174.480469 277.925781 179.242188 278.304688 180.726562 279.574219 C 182.3125 280.929688 182.292969 280.929688 183.328125 279.914062 C 184.984375 278.292969 187.933594 277.238281 191.425781 277.011719 C 192.785156 276.925781 196.40625 277.625 198.152344 278.308594 C 199.613281 278.882812 201.667969 279.398438 201.667969 279.191406 C 201.667969 279.136719 201.457031 278.667969 201.199219 278.152344 C 200.097656 275.945312 199.5 269.734375 199.96875 265.382812 C 200.042969 264.707031 200.171875 263.46875 200.257812 262.625 C 200.34375 261.785156 200.699219 260.015625 201.050781 258.695312 C 201.402344 257.375 201.898438 255.171875 202.148438 253.796875 C 202.402344 252.425781 202.941406 249.71875 203.347656 247.785156 C 203.757812 245.847656 204.242188 242.820312 204.425781 241.050781 C 204.613281 239.285156 204.894531 236.808594 205.054688 235.542969 C 205.214844 234.28125 205.617188 230.90625 205.945312 228.046875 C 206.277344 225.1875 206.6875 221.878906 206.859375 220.703125 C 207.027344 219.523438 207.375 216.632812 207.628906 214.277344 C 207.882812 211.921875 208.171875 209.785156 208.265625 209.535156 C 208.597656 208.660156 209.351562 197.128906 209.328125 193.339844 C 209.316406 191.25 209.175781 188.769531 209.015625 187.832031 C 208.855469 186.890625 208.589844 185.339844 208.425781 184.386719 C 207.972656 181.769531 207.214844 174.355469 207.253906 172.964844 C 207.304688 171.265625 206.578125 166.375 205.894531 163.792969 C 205.542969 162.457031 205.171875 160.136719 204.742188 156.59375 C 204.585938 155.332031 204.316406 153.910156 204.136719 153.441406 L 203.808594 152.582031 L 202.507812 153.484375 C 201.792969 153.980469 200.796875 154.832031 200.289062 155.378906 C 199.785156 155.925781 198.953125 156.800781 198.441406 157.324219 C 197.929688 157.847656 197.257812 158.6875 196.949219 159.195312 C 195.476562 161.609375 194.015625 162.382812 193.042969 161.257812 C 192.441406 160.5625 191.921875 157.679688 191.847656 154.617188 C 191.78125 151.949219 191.410156 150.488281 190.222656 148.203125 C 189.40625 146.628906 189.207031 145.144531 189.765625 144.796875 C 190.289062 144.476562 191.882812 144.441406 191.882812 144.753906 C 191.882812 144.910156 192.160156 144.964844 192.496094 144.875 C 192.832031 144.789062 193.105469 144.832031 193.105469 144.976562 C 193.105469 145.121094 193.523438 145.1875 194.027344 145.125 C 194.597656 145.050781 194.878906 145.125 194.757812 145.316406 C 194.640625 145.511719 195.015625 145.605469 195.75 145.574219 C 196.398438 145.542969 197.03125 145.546875 197.15625 145.585938 C 197.480469 145.679688 197.683594 145.722656 199.066406 146 C 199.738281 146.132812 200.425781 146.332031 200.59375 146.441406 C 200.765625 146.550781 201.039062 146.644531 201.207031 146.648438 C 201.375 146.65625 201.46875 146.921875 201.414062 147.238281 C 201.355469 147.558594 201.449219 148.105469 201.621094 148.457031 C 201.792969 148.808594 202.238281 149.785156 202.609375 150.625 C 203.101562 151.738281 203.324219 152 203.421875 151.582031 C 203.589844 150.886719 202.941406 148.40625 202.378906 147.574219 C 202.15625 147.242188 201.972656 146.726562 201.972656 146.425781 C 201.972656 146.117188 201.746094 145.882812 201.453125 145.882812 C 201.167969 145.882812 200.578125 145.539062 200.140625 145.117188 C 199.605469 144.609375 198.738281 144.246094 197.523438 144.03125 C 196.523438 143.855469 195.164062 143.503906 194.503906 143.246094 C 193.292969 142.777344 189.578125 142.699219 188.980469 143.128906 C 188.8125 143.25 188.332031 143.433594 187.910156 143.535156 C 186.960938 143.761719 184.046875 146.554688 183.785156 147.488281 C 183.675781 147.867188 183.25 148.824219 182.832031 149.617188 C 181.851562 151.492188 180.933594 154.183594 180.707031 155.855469 C 180.085938 160.433594 180.054688 183.613281 180.660156 190.101562 C 180.757812 191.113281 180.929688 194.070312 181.042969 196.679688 C 181.160156 199.289062 181.308594 201.519531 181.375 201.632812 C 181.445312 201.746094 181.566406 202.777344 181.644531 203.925781 C 181.722656 205.074219 181.882812 207.046875 181.996094 208.308594 C 182.375 212.488281 182.234375 216.964844 181.6875 218.117188 C 181.414062 218.699219 181.125 220 181.046875 221.007812 C 180.742188 224.859375 180.492188 226.550781 180.082031 227.550781 C 179.847656 228.117188 179.65625 228.8125 179.65625 229.089844 C 179.65625 229.371094 179.386719 230.136719 179.050781 230.789062 C 178.71875 231.441406 178.289062 232.46875 178.09375 233.070312 C 177.53125 234.820312 175.46875 239.066406 174.992188 239.464844 C 174.75 239.664062 174.304688 240.378906 174.003906 241.050781 C 173.699219 241.726562 173.335938 242.277344 173.199219 242.277344 C 173.0625 242.277344 172.722656 242.714844 172.449219 243.246094 C 171.636719 244.8125 166.9375 249.09375 164.0625 250.882812 C 162.992188 251.550781 156.898438 253.582031 155.308594 253.804688 C 152.707031 254.167969 150.636719 251.34375 151.054688 248 C 151.167969 247.09375 152.152344 243.75 153.242188 240.566406 C 155.433594 234.179688 155.902344 232.660156 156.4375 230.1875 C 156.585938 229.515625 156.699219 228 156.695312 226.824219 L 156.6875 224.679688 L 156.121094 226.515625 C 155.808594 227.527344 155.269531 229.316406 154.921875 230.496094 C 154.578125 231.671875 154.105469 233.121094 153.871094 233.707031 C 153.640625 234.296875 153.203125 235.605469 152.902344 236.617188 C 152.601562 237.625 152.046875 239.414062 151.664062 240.59375 C 151.285156 241.773438 150.757812 243.71875 150.492188 244.921875 C 149.875 247.730469 149.511719 253.144531 149.90625 253.667969 C 150.066406 253.882812 150.375 254.679688 150.589844 255.4375 C 150.800781 256.191406 151.523438 258.328125 152.191406 260.179688 C 153.476562 263.742188 155.140625 269.902344 155.332031 271.808594 C 155.367188 272.144531 155.488281 273.175781 155.605469 274.101562 C 155.722656 275.027344 155.875 278.125 155.945312 280.988281 C 156.101562 287.238281 156.722656 289.683594 158.152344 289.703125 C 158.34375 289.703125 160.277344 287.949219 162.445312 285.800781 Z M 201.890625 114.535156 C 206.792969 113.121094 208.820312 112.117188 210.851562 110.085938 C 213.175781 107.765625 216.191406 103.007812 217.761719 99.195312 C 218.109375 98.34375 218.785156 97.035156 219.261719 96.289062 C 219.738281 95.539062 220.601562 94.035156 221.179688 92.949219 C 222.277344 90.894531 224.71875 87.695312 226.960938 85.375 C 227.675781 84.636719 228.261719 83.976562 228.261719 83.902344 C 228.261719 83.707031 224.578125 84.367188 221.84375 85.050781 C 220.546875 85.375 215.199219 88.039062 214.203125 88.859375 C 213.949219 89.066406 212.847656 89.921875 211.753906 90.757812 C 210.664062 91.59375 209.445312 92.601562 209.050781 92.992188 C 208.101562 93.929688 205.824219 98.488281 204.90625 101.277344 C 204.070312 103.824219 203.839844 104.394531 202.226562 107.886719 C 200.949219 110.644531 199.707031 112.597656 198.058594 114.421875 C 197.128906 115.449219 197.082031 115.582031 197.632812 115.582031 C 197.976562 115.582031 199.890625 115.109375 201.890625 114.535156 Z M 189.011719 111.113281 C 192.21875 109.585938 192.804688 106.269531 190.113281 104.886719 C 189.515625 104.582031 189.207031 104.644531 188.125 105.28125 C 186.609375 106.167969 184.917969 108.175781 184.523438 109.550781 C 184.128906 110.925781 184.132812 110.945312 185.238281 111.261719 C 186.75 111.699219 187.867188 111.65625 189.011719 111.113281 Z M 186.21875 109.445312 C 185.910156 108.945312 186.320312 107.714844 186.863281 107.507812 C 187.128906 107.40625 187.683594 107.40625 188.089844 107.507812 C 188.898438 107.710938 189.105469 108.757812 188.460938 109.402344 C 188.007812 109.855469 186.492188 109.882812 186.21875 109.445312 Z M 213.4375 153.304688 C 213.101562 153.222656 212.242188 152.617188 211.53125 151.964844 C 210.765625 151.257812 209.9375 150.773438 209.488281 150.773438 C 207.394531 150.773438 206.433594 149.378906 206.132812 145.894531 C 205.96875 143.988281 206.246094 143.269531 207.246094 143.019531 C 208.019531 142.824219 210.445312 140.519531 211.503906 138.980469 C 212.332031 137.765625 213.867188 136.902344 214.671875 137.1875 C 216.671875 137.902344 217.070312 139.441406 216.152344 142.925781 C 215.757812 144.417969 215.695312 145.644531 215.84375 148.851562 C 216.015625 152.636719 215.992188 152.917969 215.441406 153.214844 C 214.828125 153.542969 214.457031 153.558594 213.4375 153.304688 Z M 213.4375 153.304688 " fill-opacity="1" fill-rule="nonzero"/></g></svg>