<svg width="125" height="419" viewBox="0 0 125 419" fill="none" xmlns="http://www.w3.org/2000/svg">
<line x1="63.5" x2="63.5" y2="419" stroke="#52BCBF"/>
<ellipse cx="62.5" cy="164.5" rx="62.5" ry="64.5" fill="#52BCBF"/>
<path d="M61.8113 185.336C58.974 185.336 56.286 184.888 53.7473 183.992C51.246 183.059 49.23 181.827 47.6993 180.296L49.6593 177.104C50.9286 178.411 52.6273 179.493 54.7553 180.352C56.9206 181.211 59.2726 181.64 61.8113 181.64C65.0593 181.64 67.542 180.931 69.2593 179.512C71.014 178.093 71.8913 176.189 71.8913 173.8C71.8913 171.411 71.0326 169.507 69.3153 168.088C67.6353 166.669 64.966 165.96 61.3073 165.96H58.5073V162.992L70.6033 147.816L71.1633 149.384H49.3233V145.8H74.5233V148.656L62.4273 163.832L60.4673 162.544H61.9793C66.6833 162.544 70.1926 163.589 72.5073 165.68C74.8593 167.771 76.0353 170.459 76.0353 173.744C76.0353 175.947 75.5126 177.925 74.4673 179.68C73.422 181.435 71.8353 182.816 69.7073 183.824C67.6166 184.832 64.9846 185.336 61.8113 185.336Z" fill="white"/>
</svg>
