<svg width="125" height="419" viewBox="0 0 125 419" fill="none" xmlns="http://www.w3.org/2000/svg">
<line x1="63.5" x2="63.5" y2="419" stroke="#52BCBF"/>
<ellipse cx="62.5" cy="164.5" rx="62.5" ry="64.5" fill="#52BCBF"/>
<path d="M49.2699 185V182.144L65.5659 166.184C67.0593 164.728 68.1793 163.459 68.9259 162.376C69.6726 161.256 70.1766 160.211 70.4379 159.24C70.6993 158.269 70.8299 157.355 70.8299 156.496C70.8299 154.219 70.0459 152.427 68.4779 151.12C66.9473 149.813 64.6699 149.16 61.6459 149.16C59.3313 149.16 57.2779 149.515 55.4859 150.224C53.7313 150.933 52.2193 152.035 50.9499 153.528L48.0939 151.064C49.6246 149.272 51.5846 147.891 53.9739 146.92C56.3633 145.949 59.0326 145.464 61.9819 145.464C64.6326 145.464 66.9286 145.893 68.8699 146.752C70.8113 147.573 72.3046 148.787 73.3499 150.392C74.4326 151.997 74.9739 153.883 74.9739 156.048C74.9739 157.317 74.7873 158.568 74.4139 159.8C74.0779 161.032 73.4433 162.339 72.5099 163.72C71.6139 165.064 70.2886 166.595 68.5339 168.312L53.5819 182.984L52.4619 181.416H76.7659V185H49.2699Z" fill="white"/>
</svg>
