<svg width="93" height="95" viewBox="0 0 93 95" fill="none" xmlns="http://www.w3.org/2000/svg">
<path d="M93 47.5C93 60.6168 87.7953 72.4918 79.3805 81.0876C70.9656 89.6834 59.3406 95 46.5 95C33.6594 95 22.0344 89.6834 13.6195 81.0876C5.20469 72.4918 0 60.6168 0 47.5C0 34.3832 5.20469 22.5082 13.6195 13.9124C22.0344 5.31662 33.6594 0 46.5 0C59.3406 0 70.9656 5.31662 79.3805 13.9124C87.7953 22.5082 93 34.3832 93 47.5Z" fill="#E5E5E5"/>
<path d="M45.8003 47.5L13.6215 80.3708C5.50452 71.8963 0.5 60.2966 0.5 47.5C0.5 34.7034 5.50452 23.1037 13.6215 14.6292L45.8003 47.5ZM79.3785 80.3708L47.1997 47.5L79.3785 14.6292C87.4955 23.1037 92.5 34.7034 92.5 47.5C92.5 60.2966 87.4955 71.8963 79.3785 80.3708ZM78.679 13.9143L46.5 46.7852L14.321 13.9143C22.6181 5.61418 33.9749 0.5 46.5 0.5C59.0251 0.5 70.3819 5.61418 78.679 13.9143ZM46.5 48.2148L78.679 81.0857C70.3819 89.3858 59.0251 94.5 46.5 94.5C33.9749 94.5 22.6181 89.3858 14.321 81.0857L46.5 48.2148Z" stroke="black" stroke-opacity="0.3"/>
<g clip-path="url(#clip0_521_373)">
<path d="M47 43.5C52.5228 43.5 57 39.0228 57 33.5C57 27.9772 52.5228 23.5 47 23.5C41.4772 23.5 37 27.9772 37 33.5C37 39.0228 41.4772 43.5 47 43.5Z" stroke="black" stroke-width="2" stroke-linecap="round" stroke-linejoin="round"/>
<path d="M32 68.5V63.5C32 60.8478 33.0536 58.3043 34.9289 56.4289C36.8043 54.5536 39.3478 53.5 42 53.5H52C54.6522 53.5 57.1957 54.5536 59.0711 56.4289C60.9464 58.3043 62 60.8478 62 63.5V68.5" stroke="black" stroke-width="2" stroke-linecap="round" stroke-linejoin="round"/>
</g>
<defs>
<clipPath id="clip0_521_373">
<rect width="60" height="60" fill="white" transform="translate(17 16)"/>
</clipPath>
</defs>
</svg>
